<?xml version="1.0" encoding="UTF-8" standalone="no"?>
<!DOCTYPE svg PUBLIC "-//W3C//DTD SVG 1.1//EN" "http://www.w3.org/Graphics/SVG/1.1/DTD/svg11.dtd">
<svg width="100%" height="100%" viewBox="0 0 262 262" version="1.1" xmlns="http://www.w3.org/2000/svg" xmlns:xlink="http://www.w3.org/1999/xlink" xml:space="preserve" xmlns:serif="http://www.serif.com/" style="fill-rule:evenodd;clip-rule:evenodd;stroke-linejoin:round;stroke-miterlimit:2;">
    <g transform="matrix(1,0,0,1,-939.055,-716.88)">
        <g transform="matrix(1,0,0,1,-78.9451,-126.12)">
            <rect x="1018" y="843" width="262" height="262" style="fill:none;"/>
            <g transform="matrix(1.18239,0,0,1.18239,-350.616,-14.5724)">
                <path d="M1379.08,749.219L1157.5,749.219L1157.5,914.162L1379.08,914.162L1379.08,749.219ZM1370.38,905.462L1370.38,797.101L1272.64,797.101L1272.64,905.462L1370.38,905.462ZM1166.2,757.919L1166.2,824.321L1166.2,905.462L1263.94,905.462L1263.94,757.919L1166.2,757.919ZM1176.32,790.649L1176.32,872.731C1176.32,880.788 1182.85,887.32 1190.9,887.32C1204.28,887.32 1225.86,887.32 1239.24,887.32C1247.29,887.32 1253.83,880.788 1253.83,872.731C1253.83,852.357 1253.83,811.024 1253.83,790.649C1253.83,782.593 1247.29,776.061 1239.24,776.061C1225.86,776.061 1204.28,776.061 1190.9,776.061C1182.85,776.061 1176.32,782.593 1176.32,790.649ZM1282.32,824.308C1282.32,837.703 1282.32,859.337 1282.32,872.731C1282.32,876.6 1283.85,880.311 1286.59,883.047C1289.32,885.783 1293.04,887.32 1296.9,887.32L1345.24,887.32C1349.11,887.32 1352.82,885.783 1355.55,883.047C1358.29,880.311 1359.83,876.6 1359.83,872.731C1359.83,859.337 1359.83,837.703 1359.83,824.308C1359.83,820.439 1358.29,816.729 1355.55,813.993C1352.82,811.257 1349.11,809.72 1345.24,809.72L1296.9,809.72C1293.04,809.72 1289.32,811.257 1286.59,813.993C1283.85,816.729 1282.32,820.439 1282.32,824.308L1282.32,824.308ZM1181.69,790.649C1181.69,785.562 1185.82,781.438 1190.9,781.438C1204.28,781.438 1225.86,781.438 1239.24,781.438C1244.32,781.438 1248.45,785.562 1248.45,790.649C1248.45,790.65 1248.45,872.731 1248.45,872.731C1248.45,877.819 1244.32,881.943 1239.24,881.943C1225.86,881.943 1204.28,881.943 1190.9,881.943C1185.82,881.943 1181.69,877.819 1181.69,872.731L1181.69,790.649ZM1287.69,824.308C1287.69,821.865 1288.66,819.522 1290.39,817.794C1292.12,816.067 1294.46,815.096 1296.9,815.096L1345.24,815.096C1347.68,815.096 1350.02,816.067 1351.75,817.794C1353.48,819.522 1354.45,821.865 1354.45,824.308L1354.45,872.731C1354.45,875.175 1353.48,877.518 1351.75,879.245C1350.02,880.973 1347.68,881.943 1345.24,881.943C1331.86,881.943 1310.28,881.943 1296.9,881.943C1294.46,881.943 1292.12,880.973 1290.39,879.245C1288.66,877.518 1287.69,875.175 1287.69,872.731L1287.69,824.308ZM1296.97,837.934C1296.97,844.477 1296.97,852.563 1296.97,859.106C1296.97,866.584 1303.03,872.646 1310.51,872.646C1317.04,872.646 1325.1,872.646 1331.63,872.646C1339.11,872.646 1345.17,866.584 1345.17,859.106C1345.17,852.563 1345.17,844.477 1345.17,837.934C1345.17,830.455 1339.11,824.393 1331.63,824.393C1325.1,824.393 1317.04,824.393 1310.51,824.393C1303.03,824.393 1296.97,830.455 1296.97,837.934ZM1300.17,837.934C1300.17,832.222 1304.8,827.591 1310.51,827.591C1310.51,827.591 1331.63,827.591 1331.63,827.591C1337.34,827.591 1341.97,832.222 1341.97,837.934C1341.97,844.477 1341.97,852.563 1341.97,859.106C1341.97,864.818 1337.34,869.448 1331.63,869.448C1331.63,869.448 1310.51,869.448 1310.51,869.448C1304.8,869.448 1300.17,864.818 1300.17,859.106C1300.17,852.563 1300.17,844.477 1300.17,837.934ZM1190.97,810.606C1190.97,822.553 1190.97,840.828 1190.97,852.775C1190.97,856.366 1192.4,859.811 1194.94,862.35C1197.48,864.889 1200.92,866.316 1204.51,866.316C1211.04,866.316 1219.1,866.316 1225.63,866.316C1229.22,866.316 1232.66,864.889 1235.2,862.35C1237.74,859.811 1239.17,856.366 1239.17,852.775C1239.17,840.828 1239.17,822.553 1239.17,810.606C1239.17,807.014 1237.74,803.57 1235.2,801.031C1232.66,798.492 1229.22,797.065 1225.63,797.065C1219.1,797.065 1211.04,797.065 1204.51,797.065C1200.92,797.065 1197.48,798.492 1194.94,801.031C1192.4,803.57 1190.97,807.014 1190.97,810.606L1190.97,810.606ZM1194.17,810.606C1194.17,807.863 1195.26,805.232 1197.2,803.292C1199.14,801.353 1201.77,800.263 1204.51,800.263C1204.51,800.263 1225.63,800.263 1225.63,800.263C1228.37,800.263 1231,801.353 1232.94,803.292C1234.88,805.232 1235.97,807.863 1235.97,810.606C1235.97,822.553 1235.97,840.828 1235.97,852.775C1235.97,855.518 1234.88,858.149 1232.94,860.089C1231,862.028 1228.37,863.118 1225.63,863.118C1225.63,863.118 1204.51,863.118 1204.51,863.118C1201.77,863.118 1199.14,862.028 1197.2,860.089C1195.26,858.149 1194.17,855.518 1194.17,852.775L1194.17,810.606ZM1272.64,757.919L1272.64,788.401L1370.38,788.401L1370.38,757.919L1272.64,757.919ZM1282.32,773.018C1282.32,773.019 1282.32,773.02 1282.32,773.021C1282.32,775.753 1283.4,778.372 1285.33,780.303C1287.26,782.235 1289.88,783.32 1292.61,783.32C1306.47,783.32 1335.67,783.32 1349.53,783.32C1352.26,783.32 1354.88,782.235 1356.81,780.303C1358.74,778.372 1359.83,775.753 1359.83,773.021C1359.83,773.02 1359.83,773.019 1359.83,773.018C1359.83,770.287 1358.74,767.668 1356.81,765.736C1354.88,763.805 1352.26,762.72 1349.53,762.72C1335.67,762.72 1306.47,762.72 1292.61,762.72C1289.88,762.72 1287.26,763.805 1285.33,765.736C1283.4,767.668 1282.32,770.287 1282.32,773.018ZM1287.69,773.018C1287.69,771.713 1288.21,770.461 1289.13,769.538C1290.06,768.615 1291.31,768.096 1292.61,768.096C1306.47,768.096 1335.67,768.096 1349.53,768.096C1350.83,768.096 1352.08,768.615 1353.01,769.538C1353.93,770.461 1354.45,771.713 1354.45,773.018C1354.45,773.019 1354.45,773.02 1354.45,773.021C1354.45,774.327 1353.93,775.579 1353.01,776.502C1352.08,777.425 1350.83,777.943 1349.53,777.943C1335.67,777.943 1306.47,777.943 1292.61,777.943C1291.31,777.943 1290.06,777.425 1289.13,776.502C1288.21,775.579 1287.69,774.327 1287.69,773.021L1287.69,773.018Z" style="fill:rgb(227,172,77);"/>
            </g>
        </g>
    </g>
</svg>
