<svg id="Layer_1" data-name="Layer 1" xmlns="http://www.w3.org/2000/svg" viewBox="0 0 5000 2428.14">
  <defs>
    <style>
      .cls-1 {
        fill: #abc09f;
      }

      .cls-2 {
        fill: #7d847a;
      }

      .cls-10, .cls-11, .cls-13, .cls-14, .cls-15, .cls-16, .cls-17, .cls-18, .cls-19, .cls-2, .cls-20, .cls-21, .cls-3, .cls-4, .cls-5, .cls-6, .cls-7, .cls-8, .cls-9 {
        fill-rule: evenodd;
      }

      .cls-3 {
        fill: #6d7b66;
      }

      .cls-4 {
        fill: #a1b496;
      }

      .cls-5 {
        fill: #bdd5b0;
      }

      .cls-6 {
        fill: #93a589;
      }

      .cls-7 {
        fill: #a3b798;
      }

      .cls-8 {
        fill: #c0d8b3;
      }

      .cls-9 {
        fill: #b3c8a7;
      }

      .cls-10 {
        fill: #7e8e75;
      }

      .cls-11 {
        fill: #899383;
      }

      .cls-12 {
        fill: #aabf9e;
      }

      .cls-13 {
        fill: #8a9b82;
      }

      .cls-14 {
        fill: #6d7a66;
      }

      .cls-15 {
        fill: #a0b496;
      }

      .cls-16 {
        fill: #bed5b1;
      }

      .cls-17 {
        fill: #bdd4af;
      }

      .cls-18 {
        fill: #a3b697;
      }

      .cls-19 {
        fill: #7e8e76;
      }

      .cls-20 {
        fill: #96a58f;
      }

      .cls-21 {
        fill: #94a78b;
      }
    </style>
  </defs>
  <title>KL5</title>
  <g>
    <g>
      <g id="Usa-Dr">
        <rect class="cls-1" x="4519.23" width="480.77" height="2428.13"/>
        <path class="cls-2" d="M4975.27,3688.85V1310.19H4544V3688.85Zm-3.44-2375.21H4547.4V3685.42h424.43Z" transform="translate(0 -1285.47)"/>
        <path class="cls-2" d="M4954.78,1491.74a26.34,26.34,0,0,0-26.33-26.33H4590.77a26.34,26.34,0,0,0-26.33,26.33V3514.38a26.33,26.33,0,0,0,26.33,26.32h337.68a26.33,26.33,0,0,0,26.33-26.32Zm-3.43,0a22.91,22.91,0,0,0-22.9-22.91H4590.77a22.9,22.9,0,0,0-22.89,22.91V3514.38a22.89,22.89,0,0,0,22.89,22.9h337.68a22.9,22.9,0,0,0,22.9-22.9Z" transform="translate(0 -1285.47)"/>
        <path class="cls-3" d="M4582.19,1485.92,4615.3,1519h294.27l27.47-33.12Z" transform="translate(0 -1285.47)"/>
        <path class="cls-4" d="M4615.3,1519l-33.11-33.12V3520l30.5-30.5Z" transform="translate(0 -1285.47)"/>
        <path class="cls-5" d="M4612.69,3489.53l-30.5,30.5H4937l-20.6-30.5Z" transform="translate(0 -1285.47)"/>
        <path class="cls-6" d="M4916.44,3489.53,4937,3520V1485.92L4909.57,1519Z" transform="translate(0 -1285.47)"/>
        <path class="cls-7" d="M4707.1,1610.52l.77,1786.62L4664,3441V1567.77Z" transform="translate(0 -1285.47)"/>
        <path class="cls-8" d="M4861.41,1567.77l-49.59,42.72-104.72,0L4664,1567.77Z" transform="translate(0 -1285.47)"/>
        <path class="cls-9" d="M4811.82,1610.49l49.59-42.72V3441l-49.05-49Z" transform="translate(0 -1285.47)"/>
        <path class="cls-10" d="M4707.87,3397.14l104.49-5.22,49.05,49H4664Z" transform="translate(0 -1285.47)"/>
        <path class="cls-11" d="M4796.19,1626.14h-73.46V3376.28h73.46Zm-70,3.44h66.59V3372.85h-66.59Z" transform="translate(0 -1285.47)"/>
      </g>
      <g id="Sertar-jos">
        <rect class="cls-1" x="2589.29" y="991.96" width="1916.21" height="1436.17"/>
        <path class="cls-2" d="M4480.76,3688.85V2302.15H2614v1386.7Zm-3.44-1383.26H2617.45V3685.42H4477.32Z" transform="translate(0 -1285.47)"/>
        <path class="cls-2" d="M4326.35,2480.31A26.34,26.34,0,0,0,4300,2454H2794.76a26.34,26.34,0,0,0-26.33,26.33V3510.94a26.34,26.34,0,0,0,26.33,26.33H4300a26.34,26.34,0,0,0,26.33-26.33Zm-3.43,0a22.91,22.91,0,0,0-22.9-22.91H2794.76a22.91,22.91,0,0,0-22.9,22.91V3510.94a22.91,22.91,0,0,0,22.9,22.91H4300a22.91,22.91,0,0,0,22.9-22.91Z" transform="translate(0 -1285.47)"/>
        <path class="cls-3" d="M2786.17,2474.44l33.12,33.11H4281.14l27.47-33.11Z" transform="translate(0 -1285.47)"/>
        <path class="cls-4" d="M2819.29,2507.55l-33.12-33.11V3516.6l30.51-30.51Z" transform="translate(0 -1285.47)"/>
        <path class="cls-5" d="M2816.68,3486.09l-30.51,30.51H4308.61L4288,3486.09Z" transform="translate(0 -1285.47)"/>
        <path class="cls-6" d="M4288,3486.09l20.61,30.51V2474.44l-27.47,33.11Z" transform="translate(0 -1285.47)"/>
        <path class="cls-7" d="M2911.09,2599l.76,794.67L2868,3437.53V2556.28Z" transform="translate(0 -1285.47)"/>
        <path class="cls-8" d="M4233,2556.28,4183.39,2599l-1272.3,0L2868,2556.28Z" transform="translate(0 -1285.47)"/>
        <path class="cls-9" d="M4183.39,2599l49.59-42.72v881.25l-49-49.05Z" transform="translate(0 -1285.47)"/>
        <path class="cls-10" d="M2911.85,3393.7l1272.08-5.22,49,49.05H2868Z" transform="translate(0 -1285.47)"/>
        <path class="cls-11" d="M4167.75,2614.66h-1241v758.19h1241Zm-1237.6,3.44H4164.32v751.31H2930.15Z" transform="translate(0 -1285.47)"/>
      </g>
      <g id="Sertar-Mj">
        <rect class="cls-1" x="2589.29" y="495.98" width="1916.21" height="476.92"/>
        <path class="cls-2" d="M4480.76,2233.62V1806.17H2614v427.45Zm-3.44-424H2617.45v420.59H4477.32Z" transform="translate(0 -1285.47)"/>
        <path class="cls-2" d="M4326.35,1854.34A26.34,26.34,0,0,0,4300,1828H2794.76a26.34,26.34,0,0,0-26.33,26.33v331.29a26.34,26.34,0,0,0,26.33,26.33H4300a26.34,26.34,0,0,0,26.33-26.33Zm-3.43,0a22.91,22.91,0,0,0-22.9-22.91H2794.76a22.91,22.91,0,0,0-22.9,22.91v331.29a22.91,22.91,0,0,0,22.9,22.91H4300a22.91,22.91,0,0,0,22.9-22.91Z" transform="translate(0 -1285.47)"/>
        <path class="cls-3" d="M2786.17,1848.53l33.12,33.12H4281.14l27.47-33.12Z" transform="translate(0 -1285.47)"/>
        <path class="cls-4" d="M2819.29,1881.65l-33.12-33.12v342.76l30.51-30.51Z" transform="translate(0 -1285.47)"/>
        <path class="cls-5" d="M2816.68,2160.78l-30.51,30.51H4308.61L4288,2160.78Z" transform="translate(0 -1285.47)"/>
        <path class="cls-6" d="M4288,2160.78l20.61,30.51V1848.53l-27.47,33.12Z" transform="translate(0 -1285.47)"/>
        <path class="cls-7" d="M2911.09,1973.12l.76,95.27L2868,2112.23V1930.38Z" transform="translate(0 -1285.47)"/>
        <path class="cls-8" d="M4233,1930.38l-49.59,42.72-1272.3,0L2868,1930.38Z" transform="translate(0 -1285.47)"/>
        <path class="cls-9" d="M4183.39,1973.1l49.59-42.72v181.85l-49-49.05Z" transform="translate(0 -1285.47)"/>
        <path class="cls-10" d="M2911.85,2068.39l1272.08-5.21,49,49.05H2868Z" transform="translate(0 -1285.47)"/>
        <path class="cls-11" d="M4167.75,1988.76h-1241v58.78h1241Zm-1237.6,3.43H4164.32v51.91H2930.15Z" transform="translate(0 -1285.47)"/>
      </g>
      <g id="Sertar-Sus">
        <rect class="cls-1" x="2589.29" y="0.01" width="1916.21" height="476.92"/>
        <path class="cls-2" d="M4480.76,1737.65V1310.2H2614v427.45Zm-3.44-424H2617.45v420.59H4477.32Z" transform="translate(0 -1285.47)"/>
        <path class="cls-2" d="M4326.35,1358.37A26.34,26.34,0,0,0,4300,1332H2794.76a26.34,26.34,0,0,0-26.33,26.33v331.29a26.34,26.34,0,0,0,26.33,26.33H4300a26.34,26.34,0,0,0,26.33-26.33Zm-3.43,0a22.91,22.91,0,0,0-22.9-22.91H2794.76a22.91,22.91,0,0,0-22.9,22.91v331.29a22.91,22.91,0,0,0,22.9,22.91H4300a22.91,22.91,0,0,0,22.9-22.91Z" transform="translate(0 -1285.47)"/>
        <path class="cls-3" d="M2786.17,1352.56l33.12,33.12H4281.14l27.47-33.12Z" transform="translate(0 -1285.47)"/>
        <path class="cls-4" d="M2819.29,1385.68l-33.12-33.12v342.76l30.51-30.51Z" transform="translate(0 -1285.47)"/>
        <path class="cls-5" d="M2816.68,1664.81l-30.51,30.51H4308.61L4288,1664.81Z" transform="translate(0 -1285.47)"/>
        <path class="cls-6" d="M4288,1664.81l20.61,30.51V1352.56l-27.47,33.12Z" transform="translate(0 -1285.47)"/>
        <path class="cls-7" d="M2911.09,1477.15l.76,95.27L2868,1616.25V1434.41Z" transform="translate(0 -1285.47)"/>
        <path class="cls-8" d="M4233,1434.41l-49.59,42.72-1272.3,0L2868,1434.41Z" transform="translate(0 -1285.47)"/>
        <path class="cls-9" d="M4183.39,1477.13l49.59-42.72v181.84l-49-49Z" transform="translate(0 -1285.47)"/>
        <path class="cls-10" d="M2911.85,1572.42l1272.08-5.22,49,49H2868Z" transform="translate(0 -1285.47)"/>
        <path class="cls-11" d="M4167.75,1492.79h-1241v58.78h1241Zm-1237.6,3.43H4164.32v51.91H2930.15Z" transform="translate(0 -1285.47)"/>
      </g>
      <g id="Usa-Mj">
        <rect class="cls-12" x="1294.64" width="1280.91" height="2428.13"/>
        <path class="cls-13" d="M2550.81,3688.85V1310.19H1319.37V3688.85Zm-3.43-2375.21H1322.81V3685.42H2547.38Z" transform="translate(0 -1285.47)"/>
        <path class="cls-13" d="M2396.41,1488.3a26.33,26.33,0,0,0-26.33-26.32h-870a26.32,26.32,0,0,0-26.32,26.32V3510.94a26.33,26.33,0,0,0,26.32,26.33h870a26.34,26.34,0,0,0,26.33-26.33Zm-3.44,0a22.89,22.89,0,0,0-22.89-22.9h-870a22.89,22.89,0,0,0-22.89,22.9V3510.94a22.9,22.9,0,0,0,22.89,22.91h870a22.9,22.9,0,0,0,22.89-22.91Z" transform="translate(0 -1285.47)"/>
        <path class="cls-14" d="M1491.53,1482.49l33.12,33.11h826.54l27.47-33.11Z" transform="translate(0 -1285.47)"/>
        <path class="cls-15" d="M1524.65,1515.6l-33.12-33.11V3516.6l30.5-30.51Z" transform="translate(0 -1285.47)"/>
        <path class="cls-16" d="M1522,3486.09l-30.5,30.51h887.13l-20.6-30.51Z" transform="translate(0 -1285.47)"/>
        <path class="cls-6" d="M2358.06,3486.09l20.6,30.51V1482.49l-27.47,33.11Z" transform="translate(0 -1285.47)"/>
        <path class="cls-7" d="M1616.44,1607.09l.77,1786.61-43.84,43.83V1564.33Z" transform="translate(0 -1285.47)"/>
        <path class="cls-17" d="M2303,1564.33l-49.58,42.72-637,0-43.07-42.74Z" transform="translate(0 -1285.47)"/>
        <path class="cls-18" d="M2253.45,1607.05l49.58-42.72v1873.2L2254,3388.48Z" transform="translate(0 -1285.47)"/>
        <path class="cls-19" d="M1617.21,3393.7l636.77-5.22,49.05,49.05H1573.37Z" transform="translate(0 -1285.47)"/>
        <path class="cls-20" d="M2237.81,1622.71H1632.07V3372.85h605.74Zm-602.3,3.43h598.86V3369.41H1635.51Z" transform="translate(0 -1285.47)"/>
      </g>
      <g id="Usa-St">
        <rect class="cls-12" width="1280.91" height="2428.13"/>
        <path class="cls-13" d="M1256.17,3688.85V1310.19H24.73V3688.85Zm-3.43-2375.21H28.17V3685.42H1252.74Z" transform="translate(0 -1285.47)"/>
        <path class="cls-13" d="M1101.76,1488.3a26.32,26.32,0,0,0-26.32-26.32h-870a26.33,26.33,0,0,0-26.33,26.32V3510.94a26.34,26.34,0,0,0,26.33,26.33h870a26.33,26.33,0,0,0,26.32-26.33Zm-3.43,0a22.89,22.89,0,0,0-22.89-22.9h-870a22.89,22.89,0,0,0-22.89,22.9V3510.94a22.9,22.9,0,0,0,22.89,22.91h870a22.9,22.9,0,0,0,22.89-22.91Z" transform="translate(0 -1285.47)"/>
        <path class="cls-14" d="M196.89,1482.49,230,1515.6h826.55l27.47-33.11Z" transform="translate(0 -1285.47)"/>
        <path class="cls-15" d="M230,1515.6l-33.11-33.11V3516.6l30.5-30.51Z" transform="translate(0 -1285.47)"/>
        <path class="cls-16" d="M227.39,3486.09l-30.5,30.51H1084l-20.6-30.51Z" transform="translate(0 -1285.47)"/>
        <path class="cls-6" d="M1063.42,3486.09l20.6,30.51V1482.49l-27.47,33.11Z" transform="translate(0 -1285.47)"/>
        <path class="cls-7" d="M321.8,1607.09l.77,1786.61-43.84,43.83V1564.33Z" transform="translate(0 -1285.47)"/>
        <path class="cls-17" d="M1008.39,1564.33l-49.59,42.72-637,0-43.07-42.74Z" transform="translate(0 -1285.47)"/>
        <path class="cls-18" d="M958.8,1607.05l49.59-42.72v1873.2l-49-49.05Z" transform="translate(0 -1285.47)"/>
        <path class="cls-19" d="M322.57,3393.7l636.77-5.22,49,49.05H278.73Z" transform="translate(0 -1285.47)"/>
        <path class="cls-20" d="M943.17,1622.71H337.43V3372.85H943.17Zm-602.3,3.43H939.73V3369.41H340.87Z" transform="translate(0 -1285.47)"/>
      </g>
    </g>
    <g id="Usa-Dr1">
      <rect class="cls-12" x="4518.58" width="481.43" height="2428.13"/>
      <path class="cls-13" d="M4820.86,1488.3a26.33,26.33,0,0,0-26.33-26.32h-70.48a26.33,26.33,0,0,0-26.33,26.32V3510.94a26.34,26.34,0,0,0,26.33,26.33h70.48a26.34,26.34,0,0,0,26.33-26.33Zm-3.43,0c0-12.65-10.25-18.29-22.9-18.29h-70.48c-12.64,0-22.89,5.64-22.89,18.29V3510.94c0,12.65,10.25,25.82,22.89,25.82h70.48c12.65,0,22.9-13.17,22.9-25.82Z" transform="translate(0 -1285.47)"/>
      <path class="cls-21" d="M4962.38,1322.88l-150.83,145.24a26.64,26.64,0,0,1,4.62,5.09Z" transform="translate(0 -1285.47)"/>
      <path class="cls-21" d="M4556.19,1322.88,4707,1468.12a26.64,26.64,0,0,0-4.62,5.09Z" transform="translate(0 -1285.47)"/>
      <path class="cls-21" d="M4556.19,3676.22,4707,3531a26.41,26.41,0,0,1-4.62-5.1Z" transform="translate(0 -1285.47)"/>
      <path class="cls-21" d="M4962.38,3676.22,4811.55,3531a26.41,26.41,0,0,0,4.62-5.1Z" transform="translate(0 -1285.47)"/>
    </g>
    <g id="Sertar-Jos-2" data-name="Sertar-Jos">
      <rect class="cls-12" x="2589.29" y="986.72" width="1913.27" height="1441.4"/>
      <path class="cls-13" d="M4323.4,2475a26.32,26.32,0,0,0-26.32-26.32H2794.76a26.33,26.33,0,0,0-26.33,26.32V3511a26.34,26.34,0,0,0,26.33,26.33H4297.08A26.33,26.33,0,0,0,4323.4,3511Zm-3.43,0c0-12.65-10.25-18.29-22.89-18.29H2794.76c-12.65,0-22.9,5.64-22.9,18.29V3511c0,12.65,10.25,25.81,22.9,25.81H4297.08c12.64,0,22.89-13.16,22.89-25.81Z" transform="translate(0 -1285.47)"/>
      <path class="cls-21" d="M4464.93,2309.6l-150.84,145.24a26.77,26.77,0,0,1,4.63,5.1Z" transform="translate(0 -1285.47)"/>
      <path class="cls-21" d="M2626.9,2309.6l150.82,145.24a26.7,26.7,0,0,0-4.61,5.1Z" transform="translate(0 -1285.47)"/>
      <path class="cls-21" d="M2626.9,3676.22,2777.72,3531a26.7,26.7,0,0,1-4.61-5.1Z" transform="translate(0 -1285.47)"/>
      <path class="cls-21" d="M4464.93,3676.22,4314.09,3531a26.77,26.77,0,0,0,4.63-5.1Z" transform="translate(0 -1285.47)"/>
    </g>
    <g id="Sertar-Mj1">
      <rect class="cls-12" x="2587.49" y="493.36" width="1915.06" height="476.43"/>
      <path class="cls-13" d="M4323.41,1981.66a26.33,26.33,0,0,0-26.33-26.32H2793a26.33,26.33,0,0,0-26.33,26.32v71a26.33,26.33,0,0,0,26.33,26.32H4297.08a26.33,26.33,0,0,0,26.33-26.32Zm-3.44,0c0-12.65-10.24-18.29-22.89-18.29H2793c-12.64,0-22.89,5.64-22.89,18.29v71c0,12.65,10.25,26,22.89,26H4297.08c12.65,0,22.89-13.33,22.89-26Z" transform="translate(0 -1285.47)"/>
      <path class="cls-21" d="M4464.93,1816.24,4314.1,1961.48a26.41,26.41,0,0,1,4.62,5.1Z" transform="translate(0 -1285.47)"/>
      <path class="cls-21" d="M2625.1,1816.24l150.83,145.24a26.41,26.41,0,0,0-4.62,5.1Z" transform="translate(0 -1285.47)"/>
      <path class="cls-21" d="M2625.1,2217.89l150.83-145.24a26,26,0,0,1-4.62-5.09Z" transform="translate(0 -1285.47)"/>
      <path class="cls-21" d="M4464.93,2217.89,4314.1,2072.65a26,26,0,0,0,4.62-5.09Z" transform="translate(0 -1285.47)"/>
    </g>
    <g id="Sertar-Sus1">
      <rect class="cls-12" x="2587.49" width="1915.06" height="476.43"/>
      <path class="cls-13" d="M4323.41,1488.3a26.33,26.33,0,0,0-26.33-26.32H2793a26.33,26.33,0,0,0-26.33,26.32v70.94a26.34,26.34,0,0,0,26.33,26.33H4297.08a26.34,26.34,0,0,0,26.33-26.33Zm-3.44,0c0-12.65-10.24-18.29-22.89-18.29H2793c-12.64,0-22.89,5.64-22.89,18.29v70.94c0,12.65,10.25,26,22.89,26H4297.08c12.65,0,22.89-13.34,22.89-26Z" transform="translate(0 -1285.47)"/>
      <path class="cls-21" d="M4464.93,1322.88,4314.1,1468.12a26.64,26.64,0,0,1,4.62,5.09Z" transform="translate(0 -1285.47)"/>
      <path class="cls-21" d="M2625.1,1322.88l150.83,145.24a26.64,26.64,0,0,0-4.62,5.09Z" transform="translate(0 -1285.47)"/>
      <path class="cls-21" d="M2625.1,1724.53l150.83-145.24a26,26,0,0,1-4.62-5.09Z" transform="translate(0 -1285.47)"/>
      <path class="cls-21" d="M4464.93,1724.53,4314.1,1579.29a26,26,0,0,0,4.62-5.09Z" transform="translate(0 -1285.47)"/>
    </g>
    <g id="Usa-Mj1">
      <rect class="cls-12" x="1296.93" width="1280.91" height="2428.13"/>
      <path class="cls-13" d="M2398.7,1488.3a26.33,26.33,0,0,0-26.33-26.32h-870a26.32,26.32,0,0,0-26.32,26.32V3510.94a26.33,26.33,0,0,0,26.32,26.33h870a26.34,26.34,0,0,0,26.33-26.33Zm-3.44,0c0-12.65-10.24-18.29-22.89-18.29h-870c-12.64,0-22.89,5.64-22.89,18.29V3510.94c0,12.65,10.25,25.82,22.89,25.82h870c12.65,0,22.89-13.17,22.89-25.82Z" transform="translate(0 -1285.47)"/>
      <path class="cls-21" d="M2540.21,1322.88l-150.82,145.24a26.6,26.6,0,0,1,4.61,5.09Z" transform="translate(0 -1285.47)"/>
      <path class="cls-21" d="M1334.55,1322.88l150.82,145.24a26.6,26.6,0,0,0-4.61,5.09Z" transform="translate(0 -1285.47)"/>
      <path class="cls-21" d="M1334.55,3676.22,1485.37,3531a26.37,26.37,0,0,1-4.61-5.1Z" transform="translate(0 -1285.47)"/>
      <path class="cls-21" d="M2540.21,3676.22,2389.39,3531a26.37,26.37,0,0,0,4.61-5.1Z" transform="translate(0 -1285.47)"/>
    </g>
    <g id="Usa-St1">
      <rect class="cls-12" width="1280.91" height="2428.13"/>
      <path class="cls-13" d="M1101.76,1488.3a26.32,26.32,0,0,0-26.32-26.32h-870a26.33,26.33,0,0,0-26.33,26.32V3510.94a26.34,26.34,0,0,0,26.33,26.33h870a26.33,26.33,0,0,0,26.32-26.33Zm-3.43,0c0-12.65-10.25-18.29-22.89-18.29h-870c-12.64,0-22.89,5.64-22.89,18.29V3510.94c0,12.65,10.25,25.82,22.89,25.82h870c12.64,0,22.89-13.17,22.89-25.82Z" transform="translate(0 -1285.47)"/>
      <path class="cls-21" d="M1243.28,1322.88l-150.82,145.24a26.93,26.93,0,0,1,4.61,5.09Z" transform="translate(0 -1285.47)"/>
      <path class="cls-21" d="M37.61,1322.88l150.83,145.24a26.28,26.28,0,0,0-4.61,5.09Z" transform="translate(0 -1285.47)"/>
      <path class="cls-21" d="M37.61,3676.22,188.44,3531a26.06,26.06,0,0,1-4.61-5.1Z" transform="translate(0 -1285.47)"/>
      <path class="cls-21" d="M1243.28,3676.22,1092.46,3531a26.7,26.7,0,0,0,4.61-5.1Z" transform="translate(0 -1285.47)"/>
    </g>
  </g>
</svg>
