<?xml version="1.0" encoding="UTF-8" standalone="no"?>
<!DOCTYPE svg PUBLIC "-//W3C//DTD SVG 1.1//EN" "http://www.w3.org/Graphics/SVG/1.1/DTD/svg11.dtd">
<svg width="100%" height="100%" viewBox="0 0 262 262" version="1.1" xmlns="http://www.w3.org/2000/svg" xmlns:xlink="http://www.w3.org/1999/xlink" xml:space="preserve" xmlns:serif="http://www.serif.com/" style="fill-rule:evenodd;clip-rule:evenodd;stroke-linejoin:round;stroke-miterlimit:2;">
    <g transform="matrix(1,0,0,1,-234,-1011.2)">
        <g transform="matrix(1,0,0,1,-784,168.199)">
            <rect x="1018" y="843" width="262" height="262" style="fill:none;"/>
            <g transform="matrix(1.01669,0,0,1.01669,142.626,-175.089)">
                <path d="M1118.71,1030.53L861.007,1030.53L861.007,1229.93L1118.71,1229.93L1118.71,1030.53ZM869.707,1095.96L869.707,1221.23C869.707,1221.23 1110.01,1221.23 1110.01,1221.23L1110.01,1095.96L1011.36,1154.59C998.107,1162.47 981.607,1162.47 968.354,1154.59L869.707,1095.96ZM1099,1206.41C1099,1207.13 1098.81,1207.77 1098.43,1208.3C1098.06,1208.84 1097.51,1209.26 1096.79,1209.55C1096.07,1209.84 1095.2,1209.98 1094.17,1209.98C1093.72,1209.98 1093.27,1209.95 1092.84,1209.9C1092.41,1209.84 1091.99,1209.76 1091.6,1209.65C1091.2,1209.54 1090.82,1209.41 1090.46,1209.24L1090.46,1206.83C1091.08,1207.08 1091.73,1207.32 1092.4,1207.52C1093.07,1207.73 1093.73,1207.83 1094.39,1207.83C1094.84,1207.83 1095.21,1207.78 1095.48,1207.67C1095.76,1207.55 1095.96,1207.4 1096.09,1207.2C1096.21,1207.01 1096.28,1206.79 1096.28,1206.53C1096.28,1206.23 1096.17,1205.96 1095.94,1205.74C1095.72,1205.53 1095.42,1205.32 1095.04,1205.13C1094.65,1204.94 1094.22,1204.74 1093.73,1204.52C1093.43,1204.38 1093.1,1204.22 1092.74,1204.03C1092.38,1203.83 1092.04,1203.6 1091.72,1203.32C1091.39,1203.04 1091.13,1202.7 1090.92,1202.3C1090.72,1201.9 1090.62,1201.42 1090.62,1200.86C1090.62,1200.12 1090.79,1199.5 1091.15,1198.98C1091.51,1198.46 1092.02,1198.06 1092.69,1197.78C1093.36,1197.5 1094.14,1197.37 1095.05,1197.37C1095.73,1197.37 1096.38,1197.44 1097,1197.59C1097.62,1197.74 1098.26,1197.95 1098.94,1198.23L1098.04,1200.25C1097.44,1200.02 1096.9,1199.85 1096.42,1199.72C1095.94,1199.59 1095.45,1199.53 1094.96,1199.53C1094.61,1199.53 1094.32,1199.58 1094.07,1199.69C1093.83,1199.79 1093.64,1199.93 1093.52,1200.12C1093.39,1200.31 1093.33,1200.53 1093.33,1200.77C1093.33,1201.07 1093.42,1201.31 1093.6,1201.51C1093.79,1201.71 1094.06,1201.9 1094.43,1202.08C1094.79,1202.27 1095.25,1202.48 1095.8,1202.73C1096.47,1203.03 1097.04,1203.34 1097.52,1203.66C1097.99,1203.98 1098.36,1204.36 1098.61,1204.79C1098.87,1205.22 1099,1205.76 1099,1206.41ZM1079.07,1199.53C1078.54,1199.53 1078.07,1199.63 1077.66,1199.82C1077.25,1200.01 1076.9,1200.29 1076.63,1200.66C1076.35,1201.02 1076.14,1201.46 1076,1201.97C1075.85,1202.49 1075.78,1203.07 1075.78,1203.71C1075.78,1204.58 1075.9,1205.32 1076.13,1205.93C1076.36,1206.55 1076.71,1207.01 1077.2,1207.33C1077.68,1207.66 1078.3,1207.82 1079.07,1207.82C1079.6,1207.82 1080.13,1207.76 1080.67,1207.65C1081.2,1207.54 1081.78,1207.38 1082.41,1207.17L1082.41,1209.35C1081.83,1209.58 1081.26,1209.74 1080.7,1209.84C1080.14,1209.93 1079.51,1209.98 1078.81,1209.98C1077.46,1209.98 1076.35,1209.72 1075.48,1209.2C1074.61,1208.67 1073.97,1207.94 1073.55,1207C1073.13,1206.06 1072.92,1204.95 1072.92,1203.69C1072.92,1202.77 1073.06,1201.91 1073.33,1201.14C1073.6,1200.37 1073.99,1199.7 1074.51,1199.14C1075.03,1198.57 1075.67,1198.13 1076.43,1197.83C1077.2,1197.52 1078.08,1197.37 1079.07,1197.37C1079.72,1197.37 1080.37,1197.44 1081.03,1197.6C1081.68,1197.75 1082.31,1197.96 1082.9,1198.23L1082.01,1200.35C1081.52,1200.13 1081.02,1199.94 1080.53,1199.77C1080.03,1199.61 1079.55,1199.53 1079.07,1199.53ZM1070.79,1203.66C1070.79,1204.61 1070.67,1205.47 1070.41,1206.24C1070.16,1207.02 1069.78,1207.69 1069.27,1208.25C1068.76,1208.81 1068.12,1209.24 1067.33,1209.53C1066.55,1209.83 1065.63,1209.98 1064.56,1209.98C1063.49,1209.98 1062.56,1209.83 1061.78,1209.53C1061,1209.24 1060.35,1208.81 1059.84,1208.25C1059.33,1207.69 1058.95,1207.02 1058.7,1206.24C1058.45,1205.46 1058.32,1204.6 1058.32,1203.64C1058.32,1202.37 1058.55,1201.27 1058.99,1200.32C1059.43,1199.38 1060.12,1198.65 1061.05,1198.13C1061.97,1197.61 1063.15,1197.35 1064.58,1197.35C1066,1197.35 1067.16,1197.61 1068.08,1198.13C1069,1198.65 1069.68,1199.38 1070.12,1200.33C1070.57,1201.27 1070.79,1202.38 1070.79,1203.66ZM1041.26,1209.82L1033.71,1209.82L1033.71,1197.54L1041.26,1197.54L1041.26,1199.67L1036.49,1199.67L1036.49,1202.37L1040.93,1202.37L1040.93,1204.5L1036.49,1204.5L1036.49,1207.67L1041.26,1207.67L1041.26,1209.82ZM1085.2,1209.82L1085.2,1197.54L1087.97,1197.54L1087.97,1209.82L1085.2,1209.82ZM1055.61,1209.82L1052.08,1209.82L1046.38,1200.53L1046.3,1200.53C1046.33,1200.92 1046.35,1201.31 1046.36,1201.7L1046.47,1204.04L1046.47,1209.82L1043.99,1209.82L1043.99,1197.54L1047.49,1197.54L1053.18,1206.73L1053.24,1206.73C1053.23,1206.35 1053.22,1205.98 1053.2,1205.6C1053.18,1205.23 1053.16,1204.85 1053.15,1204.48C1053.13,1204.1 1053.12,1203.73 1053.11,1203.35L1053.11,1197.54L1055.61,1197.54L1055.61,1209.82ZM1017,1199.32L882,1199.32C879.599,1199.32 877.65,1201.27 877.65,1203.67C877.65,1206.07 879.599,1208.02 882,1208.02L1017,1208.02C1019.4,1208.02 1021.35,1206.07 1021.35,1203.67C1021.35,1201.27 1019.4,1199.32 1017,1199.32ZM1061.23,1203.66C1061.23,1204.52 1061.35,1205.26 1061.58,1205.87C1061.81,1206.49 1062.17,1206.97 1062.66,1207.3C1063.15,1207.63 1063.78,1207.8 1064.56,1207.8C1065.35,1207.8 1065.98,1207.63 1066.47,1207.3C1066.96,1206.97 1067.32,1206.49 1067.54,1205.87C1067.77,1205.26 1067.88,1204.52 1067.88,1203.66C1067.88,1202.37 1067.62,1201.36 1067.11,1200.62C1066.6,1199.88 1065.75,1199.51 1064.58,1199.51C1063.79,1199.51 1063.15,1199.68 1062.66,1200.01C1062.17,1200.35 1061.81,1200.82 1061.58,1201.44C1061.35,1202.06 1061.23,1202.8 1061.23,1203.66ZM1110.01,1085.84L1110.01,1039.23L869.707,1039.23L869.707,1085.84L972.799,1147.11C983.313,1153.36 996.402,1153.36 1006.92,1147.11L1110.01,1085.84ZM943.35,1049.32C945.751,1049.32 947.7,1051.27 947.7,1053.67C947.7,1056.07 945.751,1058.02 943.35,1058.02C940.949,1058.02 939,1056.07 939,1053.67C939,1051.27 940.949,1049.32 943.35,1049.32ZM929.208,1049.32L882,1049.32C879.599,1049.32 877.65,1051.27 877.65,1053.67C877.65,1056.07 879.599,1058.02 882,1058.02L929.208,1058.02C931.609,1058.02 933.558,1056.07 933.558,1053.67C933.558,1051.27 931.609,1049.32 929.208,1049.32Z" style="fill:rgb(227,172,77);"/>
            </g>
        </g>
    </g>
</svg>
