<?xml version="1.0" encoding="UTF-8" standalone="no"?>
<!DOCTYPE svg PUBLIC "-//W3C//DTD SVG 1.1//EN" "http://www.w3.org/Graphics/SVG/1.1/DTD/svg11.dtd">
<svg width="100%" height="100%" viewBox="0 0 262 262" version="1.1" xmlns="http://www.w3.org/2000/svg" xmlns:xlink="http://www.w3.org/1999/xlink" xml:space="preserve" xmlns:serif="http://www.serif.com/" style="fill-rule:evenodd;clip-rule:evenodd;stroke-linejoin:round;stroke-miterlimit:2;">
    <g transform="matrix(1,0,0,1,-584.56,-716.88)">
        <g transform="matrix(1,0,0,1,-433.44,-126.12)">
            <rect x="1018" y="843" width="262" height="262" style="fill:none;"/>
            <g transform="matrix(0.964754,0,0,0.964754,207.119,155.933)">
                <path d="M1091.38,848.156L1091.38,745.413L861.207,745.413L861.207,848.156L842.941,848.156L842.941,916.656L878.331,916.656L878.331,950.494L923.562,950.494L923.562,916.656L1029.02,916.656L1029.02,950.494L1074.25,950.494L1074.25,916.656L1109.64,916.656L1109.64,848.156L1091.38,848.156ZM887.031,916.656L914.862,916.656C914.862,916.656 914.862,941.794 914.862,941.794C914.862,941.794 887.031,941.794 887.031,941.794L887.031,916.656ZM1037.72,916.656L1065.55,916.656C1065.55,916.656 1065.55,941.794 1065.55,941.794C1065.55,941.794 1037.72,941.794 1037.72,941.794L1037.72,916.656ZM1100.94,856.856L851.641,856.856L851.641,907.956L878.331,907.956C878.331,907.956 923.562,907.956 923.562,907.956L923.562,907.956L1029.02,907.956L1029.02,907.956L1074.25,907.956L1074.25,907.956L1100.94,907.956C1100.94,907.956 1100.94,856.856 1100.94,856.856ZM1080.8,848.156L1082.68,848.156C1082.68,848.156 1082.68,754.113 1082.68,754.113L869.907,754.113L869.907,848.156L871.784,848.156L871.784,837.106C871.784,833.153 873.354,829.363 876.149,826.568C878.944,823.772 882.735,822.202 886.688,822.202L889.832,822.202C889.232,820.903 888.914,819.478 888.914,818.019C888.914,812.613 888.914,805.202 888.914,799.796L888.914,799.796C888.914,797.146 889.966,794.606 891.839,792.732C893.713,790.859 896.253,789.807 898.903,789.807C913.275,789.807 945.697,789.807 960.07,789.807C962.719,789.807 965.26,790.859 967.133,792.732C969.006,794.606 970.059,797.146 970.059,799.796C970.059,805.202 970.059,812.613 970.059,818.019C970.059,819.478 969.74,820.903 969.14,822.202L983.442,822.202C982.843,820.903 982.524,819.478 982.524,818.019C982.524,812.613 982.524,805.202 982.524,799.796L982.524,799.796C982.524,797.146 983.577,794.606 985.45,792.732C987.323,790.859 989.864,789.807 992.513,789.807C1006.89,789.807 1039.31,789.807 1053.68,789.807C1056.33,789.807 1058.87,790.859 1060.74,792.732C1062.62,794.606 1063.67,797.146 1063.67,799.796C1063.67,805.202 1063.67,812.613 1063.67,818.019C1063.67,819.478 1063.35,820.903 1062.75,822.202L1065.89,822.202C1069.85,822.202 1073.64,823.772 1076.43,826.568C1079.23,829.363 1080.8,833.153 1080.8,837.106L1080.8,848.156ZM1074.99,848.156L877.596,848.156L877.596,837.106C877.596,834.695 878.554,832.382 880.259,830.677C881.964,828.972 884.276,828.014 886.688,828.014C922.741,828.014 1029.84,828.014 1065.89,828.014C1068.31,828.014 1070.62,828.972 1072.32,830.677C1074.03,832.382 1074.99,834.695 1074.99,837.106L1074.99,848.156ZM960.292,822.202L898.681,822.202C897.651,822.148 896.674,821.714 895.941,820.981C895.155,820.196 894.714,819.13 894.714,818.019L894.714,799.796C894.714,798.685 895.155,797.619 895.941,796.834C896.726,796.048 897.792,795.607 898.903,795.607C913.275,795.607 945.697,795.607 960.07,795.607C961.181,795.607 962.246,796.048 963.032,796.834C963.817,797.619 964.259,798.685 964.259,799.796L964.259,818.019C964.259,819.13 963.817,820.196 963.032,820.981C962.299,821.714 961.322,822.148 960.292,822.202ZM1053.9,822.202L992.291,822.202C991.261,822.148 990.284,821.714 989.551,820.981C988.766,820.196 988.324,819.13 988.324,818.019L988.324,799.796C988.324,798.685 988.766,797.619 989.551,796.834C990.337,796.048 991.402,795.607 992.513,795.607C1006.89,795.607 1039.31,795.607 1053.68,795.607C1054.79,795.607 1055.86,796.048 1056.64,796.834C1057.43,797.619 1057.87,798.685 1057.87,799.796L1057.87,818.019C1057.87,819.13 1057.43,820.196 1056.64,820.981C1055.91,821.714 1054.93,822.148 1053.9,822.202Z" style="fill:rgb(227,172,77);"/>
            </g>
        </g>
    </g>
</svg>
