<?xml version="1.0" encoding="UTF-8" standalone="no"?>
<!DOCTYPE svg PUBLIC "-//W3C//DTD SVG 1.1//EN" "http://www.w3.org/Graphics/SVG/1.1/DTD/svg11.dtd">
<svg width="100%" height="100%" viewBox="0 0 262 262" version="1.1" xmlns="http://www.w3.org/2000/svg" xmlns:xlink="http://www.w3.org/1999/xlink" xml:space="preserve" xmlns:serif="http://www.serif.com/" style="fill-rule:evenodd;clip-rule:evenodd;stroke-linejoin:round;stroke-miterlimit:2;">
    <g transform="matrix(1,0,0,1,-1274,-716.88)">
        <g transform="matrix(1,0,0,1,256,-126.12)">
            <rect x="1018" y="843" width="262" height="262" style="fill:none;"/>
            <g transform="matrix(1.01669,0,0,1.01669,405.333,-175.089)">
                <path d="M602.611,1030.53L602.611,1229.93L860.311,1229.93L860.311,1030.53L602.611,1030.53ZM851.611,1190.35L813.311,1190.35L813.311,1221.23L851.611,1221.23L851.611,1190.35ZM761.645,1190.35L761.645,1221.23L804.611,1221.23L804.611,1190.35L761.645,1190.35ZM709.978,1190.35L709.978,1221.23L752.945,1221.23L752.945,1190.35L709.978,1190.35ZM658.311,1190.35L658.311,1221.23L701.278,1221.23L701.278,1190.35L658.311,1190.35ZM649.611,1221.23L649.611,1190.35L611.311,1190.35L611.311,1221.23L649.611,1221.23ZM851.611,1181.65L611.311,1181.65L611.311,1039.23L851.611,1039.23L851.611,1181.65ZM630.05,1159.75C632.461,1159.75 634.419,1161.7 634.419,1164.11C634.419,1166.53 632.461,1168.48 630.05,1168.48C627.638,1168.48 625.68,1166.53 625.68,1164.11C625.68,1161.7 627.638,1159.75 630.05,1159.75ZM838.56,1159.75L645.357,1159.75C642.956,1159.75 641.007,1161.7 641.007,1164.1C641.007,1166.5 642.956,1168.45 645.357,1168.45L838.56,1168.45C840.961,1168.45 842.91,1166.5 842.91,1164.1C842.91,1161.7 840.961,1159.75 838.56,1159.75ZM841.057,1069.9C841.057,1064.44 838.887,1059.2 835.024,1055.33C831.16,1051.47 825.921,1049.3 820.457,1049.3C800.443,1049.3 760.272,1049.3 740.257,1049.3C734.794,1049.3 729.554,1051.47 725.691,1055.33C721.828,1059.2 719.657,1064.44 719.657,1069.9C719.657,1084.81 719.657,1110.19 719.657,1125.1C719.657,1130.56 721.828,1135.8 725.691,1139.67C729.554,1143.53 734.794,1145.7 740.257,1145.7C760.272,1145.7 800.443,1145.7 820.457,1145.7C825.921,1145.7 831.16,1143.53 835.024,1139.67C838.887,1135.8 841.057,1130.56 841.057,1125.1L841.057,1069.9ZM728.357,1121.1L728.357,1125.1C728.357,1128.26 729.611,1131.28 731.843,1133.52C734.074,1135.75 737.101,1137 740.257,1137L820.457,1137C823.613,1137 826.64,1135.75 828.872,1133.52C831.103,1131.28 832.357,1128.26 832.357,1125.1L832.357,1120.95L806.954,1100.54L776.677,1124.06C776.677,1124.06 751,1099.04 751,1099.04L728.357,1121.1ZM695.56,1118.95L630.05,1118.95C627.649,1118.95 625.7,1120.9 625.7,1123.3C625.7,1125.7 627.649,1127.65 630.05,1127.65L695.56,1127.65C697.961,1127.65 699.91,1125.7 699.91,1123.3C699.91,1120.9 697.961,1118.95 695.56,1118.95ZM832.357,1109.79L832.357,1069.9C832.357,1066.74 831.103,1063.72 828.872,1061.49C826.64,1059.25 823.613,1058 820.457,1058L740.257,1058C737.101,1058 734.074,1059.25 731.843,1061.49C729.611,1063.72 728.357,1066.74 728.357,1069.9L728.357,1108.95L751,1086.9C751,1086.9 777.323,1112.54 777.323,1112.54L807.046,1089.46L832.357,1109.79ZM695.56,1093.15L630.05,1093.15C627.649,1093.15 625.7,1095.1 625.7,1097.5C625.7,1099.9 627.649,1101.85 630.05,1101.85L695.56,1101.85C697.961,1101.85 699.91,1099.9 699.91,1097.5C699.91,1095.1 697.961,1093.15 695.56,1093.15ZM765.664,1065.13C770.283,1065.13 774.034,1068.88 774.034,1073.5C774.034,1078.12 770.283,1081.87 765.664,1081.87C761.045,1081.87 757.295,1078.12 757.295,1073.5C757.295,1068.88 761.045,1065.13 765.664,1065.13ZM695.56,1067.35L630.05,1067.35C627.649,1067.35 625.7,1069.3 625.7,1071.7C625.7,1074.1 627.649,1076.05 630.05,1076.05L695.56,1076.05C697.961,1076.05 699.91,1074.1 699.91,1071.7C699.91,1069.3 697.961,1067.35 695.56,1067.35Z" style="fill:rgb(227,172,77);"/>
            </g>
        </g>
    </g>
</svg>
