<?xml version="1.0" encoding="UTF-8" standalone="no"?>
<!DOCTYPE svg PUBLIC "-//W3C//DTD SVG 1.1//EN" "http://www.w3.org/Graphics/SVG/1.1/DTD/svg11.dtd">
<svg width="100%" height="100%" viewBox="0 0 262 262" version="1.1" xmlns="http://www.w3.org/2000/svg" xmlns:xlink="http://www.w3.org/1999/xlink" xml:space="preserve" xmlns:serif="http://www.serif.com/" style="fill-rule:evenodd;clip-rule:evenodd;stroke-linejoin:round;stroke-miterlimit:2;">
    <g transform="matrix(1,0,0,1,-612,-1011.2)">
        <g transform="matrix(1,0,0,1,-406,168.199)">
            <rect x="1018" y="843" width="262" height="262" style="fill:none;"/>
            <g transform="matrix(1.08086,0,0,1.08086,356.512,-251.364)">
                <path d="M854.399,1040.84L612,1040.84L612,1079.56L854.399,1079.56L854.399,1040.84ZM845.554,1070.72L845.554,1049.68L620.845,1049.68L620.845,1070.72C620.845,1070.72 845.554,1070.72 845.554,1070.72Z" style="fill:rgb(227,172,77);"/>
            </g>
            <g transform="matrix(1.08086,0,0,1.08086,356.512,-197.321)">
                <path d="M854.399,1040.84L612,1040.84L612,1079.56L854.399,1079.56L854.399,1040.84ZM845.554,1070.72L845.554,1049.68L620.845,1049.68L620.845,1070.72C620.845,1070.72 845.554,1070.72 845.554,1070.72Z" style="fill:rgb(227,172,77);"/>
            </g>
            <g transform="matrix(1.08086,0,0,1.08086,356.512,-143.278)">
                <path d="M854.399,1040.84L612,1040.84L612,1079.56L854.399,1079.56L854.399,1040.84ZM845.554,1070.72L845.554,1049.68L620.845,1049.68L620.845,1070.72C620.845,1070.72 845.554,1070.72 845.554,1070.72Z" style="fill:rgb(227,172,77);"/>
            </g>
            <g transform="matrix(1.08086,0,0,1.08086,356.512,-89.2345)">
                <path d="M854.399,1040.84L612,1040.84L612,1079.56L854.399,1079.56L854.399,1040.84ZM845.554,1070.72L845.554,1049.68L620.845,1049.68L620.845,1070.72C620.845,1070.72 845.554,1070.72 845.554,1070.72Z" style="fill:rgb(227,172,77);"/>
            </g>
        </g>
    </g>
</svg>
