<?xml version="1.0" encoding="UTF-8" standalone="no"?>
<!DOCTYPE svg PUBLIC "-//W3C//DTD SVG 1.1//EN" "http://www.w3.org/Graphics/SVG/1.1/DTD/svg11.dtd">
<svg width="100%" height="100%" viewBox="0 0 262 262" version="1.1" xmlns="http://www.w3.org/2000/svg" xmlns:xlink="http://www.w3.org/1999/xlink" xml:space="preserve" xmlns:serif="http://www.serif.com/" style="fill-rule:evenodd;clip-rule:evenodd;stroke-linejoin:round;stroke-miterlimit:2;">
    <g transform="matrix(1,0,0,1,-630,-770)">
        <g transform="matrix(1,0,0,1,-388,-73)">
            <rect x="1018" y="843" width="262" height="262" style="fill:none;"/>
            <g transform="matrix(1.08264,0,0,1.08264,338.099,-102.852)">
                <path d="M797,1076.41C797,1059.33 790.214,1042.94 778.136,1030.86C766.057,1018.79 749.675,1012 732.593,1012L692.407,1012C675.325,1012 658.943,1018.79 646.864,1030.86C634.786,1042.94 628,1059.33 628,1076.41L628,1077.97C628,1084.61 633.387,1090 640.032,1090C671.124,1090 753.876,1090 784.968,1090C791.613,1090 797,1084.61 797,1077.97C797,1077.46 797,1076.94 797,1076.41ZM789,1076.41L789,1077.97C789,1080.19 787.195,1082 784.968,1082C784.968,1082 640.032,1082 640.032,1082C637.805,1082 636,1080.19 636,1077.97C636,1077.97 636,1076.41 636,1076.41C636,1061.45 641.943,1047.1 652.521,1036.52C663.099,1025.94 677.447,1020 692.407,1020L732.593,1020C747.553,1020 761.901,1025.94 772.479,1036.52C783.057,1047.1 789,1061.45 789,1076.41ZM870,920.374C870,908.743 860.557,899.3 848.926,899.3L794.074,899.3C782.443,899.3 773,908.743 773,920.374L773,962.521C773,974.152 782.443,983.595 794.074,983.595L796.785,983.595L796.785,1004.12C796.785,1005.46 797.549,1006.68 798.753,1007.27C799.958,1007.86 801.392,1007.71 802.45,1006.89C812.486,999.067 832.343,983.595 832.343,983.595L848.926,983.595C860.557,983.595 870,974.152 870,962.521L870,920.374ZM804.785,994.925L804.785,983.595C804.785,979.177 801.203,975.595 796.785,975.595L794.074,975.595C786.858,975.595 781,969.737 781,962.521L781,920.374C781,913.158 786.858,907.3 794.074,907.3C794.074,907.3 848.926,907.3 848.926,907.3C856.142,907.3 862,913.158 862,920.374L862,962.521C862,969.737 856.142,975.595 848.926,975.595L832.343,975.595C830.562,975.595 828.831,976.189 827.426,977.284L804.785,994.925ZM712.5,899.3C738.563,899.3 759.723,920.46 759.723,946.522C759.723,972.585 738.563,993.745 712.5,993.745C686.437,993.745 665.277,972.585 665.277,946.522C665.277,920.46 686.437,899.3 712.5,899.3ZM712.5,907.3C734.148,907.3 751.723,924.875 751.723,946.522C751.723,968.17 734.148,985.745 712.5,985.745C690.852,985.745 673.277,968.17 673.277,946.522C673.277,924.875 690.852,907.3 712.5,907.3Z" style="fill:rgb(227,172,77);"/>
            </g>
        </g>
    </g>
</svg>
