<svg id="Layer_1" data-name="Layer 1" xmlns="http://www.w3.org/2000/svg" viewBox="0 0 5000 2428.14">
  <defs>
    <style>
      .cls-1 {
        fill: #abc09f;
      }

      .cls-2 {
        fill: #7d847a;
      }

      .cls-10, .cls-11, .cls-13, .cls-14, .cls-15, .cls-16, .cls-17, .cls-18, .cls-19, .cls-2, .cls-20, .cls-21, .cls-3, .cls-4, .cls-5, .cls-6, .cls-7, .cls-8, .cls-9 {
        fill-rule: evenodd;
      }

      .cls-3 {
        fill: #6d7b66;
      }

      .cls-4 {
        fill: #a1b496;
      }

      .cls-5 {
        fill: #bdd5b0;
      }

      .cls-6 {
        fill: #93a589;
      }

      .cls-7 {
        fill: #a3b798;
      }

      .cls-8 {
        fill: #c0d8b3;
      }

      .cls-9 {
        fill: #b3c8a7;
      }

      .cls-10 {
        fill: #7e8e75;
      }

      .cls-11 {
        fill: #899383;
      }

      .cls-12, .cls-21 {
        fill: #aabf9e;
      }

      .cls-13 {
        fill: #8a9b82;
      }

      .cls-14 {
        fill: #6d7a66;
      }

      .cls-15 {
        fill: #a0b496;
      }

      .cls-16 {
        fill: #bed5b1;
      }

      .cls-17 {
        fill: #bdd4af;
      }

      .cls-18 {
        fill: #a3b697;
      }

      .cls-19 {
        fill: #7e8e76;
      }

      .cls-20 {
        fill: #96a58f;
      }
    </style>
  </defs>
  <title>V120_Drept</title>
  <g>
    <g>
      <g id="Usa-Dr">
        <rect class="cls-1" x="4519.23" width="480.77" height="2428.13"/>
        <path class="cls-2" d="M4975.27,3688.85V1310.19H4544V3688.85Zm-3.44-2375.21H4547.4V3685.42h424.43Z" transform="translate(0 -1285.47)"/>
        <path class="cls-2" d="M4954.78,1491.74a26.34,26.34,0,0,0-26.33-26.33H4590.77a26.34,26.34,0,0,0-26.33,26.33V3514.38a26.33,26.33,0,0,0,26.33,26.32h337.68a26.33,26.33,0,0,0,26.33-26.32Zm-3.43,0a22.91,22.91,0,0,0-22.9-22.91H4590.77a22.9,22.9,0,0,0-22.89,22.91V3514.38a22.89,22.89,0,0,0,22.89,22.9h337.68a22.9,22.9,0,0,0,22.9-22.9Z" transform="translate(0 -1285.47)"/>
        <path class="cls-3" d="M4582.19,1485.92,4615.3,1519h294.27l27.47-33.12Z" transform="translate(0 -1285.47)"/>
        <path class="cls-4" d="M4615.3,1519l-33.11-33.12V3520l30.5-30.5Z" transform="translate(0 -1285.47)"/>
        <path class="cls-5" d="M4612.69,3489.53l-30.5,30.5H4937l-20.6-30.5Z" transform="translate(0 -1285.47)"/>
        <path class="cls-6" d="M4916.44,3489.53,4937,3520V1485.92L4909.57,1519Z" transform="translate(0 -1285.47)"/>
        <path class="cls-7" d="M4707.1,1610.52l.77,1786.62L4664,3441V1567.77Z" transform="translate(0 -1285.47)"/>
        <path class="cls-8" d="M4861.41,1567.77l-49.59,42.72-104.72,0L4664,1567.77Z" transform="translate(0 -1285.47)"/>
        <path class="cls-9" d="M4811.82,1610.49l49.59-42.72V3441l-49.05-49Z" transform="translate(0 -1285.47)"/>
        <path class="cls-10" d="M4707.87,3397.14l104.49-5.22,49.05,49H4664Z" transform="translate(0 -1285.47)"/>
        <path class="cls-11" d="M4796.19,1626.14h-73.46V3376.28h73.46Zm-70,3.44h66.59V3372.85h-66.59Z" transform="translate(0 -1285.47)"/>
      </g>
      <g id="Sertar-jos">
        <rect class="cls-1" x="2589.29" y="991.96" width="1916.21" height="1436.17"/>
        <path class="cls-2" d="M4480.76,3688.85V2302.15H2614v1386.7Zm-3.44-1383.26H2617.45V3685.42H4477.32Z" transform="translate(0 -1285.47)"/>
        <path class="cls-2" d="M4326.35,2480.31A26.34,26.34,0,0,0,4300,2454H2794.76a26.34,26.34,0,0,0-26.33,26.33V3510.94a26.34,26.34,0,0,0,26.33,26.33H4300a26.34,26.34,0,0,0,26.33-26.33Zm-3.43,0a22.91,22.91,0,0,0-22.9-22.91H2794.76a22.91,22.91,0,0,0-22.9,22.91V3510.94a22.91,22.91,0,0,0,22.9,22.91H4300a22.91,22.91,0,0,0,22.9-22.91Z" transform="translate(0 -1285.47)"/>
        <path class="cls-3" d="M2786.17,2474.44l33.12,33.11H4281.14l27.47-33.11Z" transform="translate(0 -1285.47)"/>
        <path class="cls-4" d="M2819.29,2507.55l-33.12-33.11V3516.6l30.51-30.51Z" transform="translate(0 -1285.47)"/>
        <path class="cls-5" d="M2816.68,3486.09l-30.51,30.51H4308.61L4288,3486.09Z" transform="translate(0 -1285.47)"/>
        <path class="cls-6" d="M4288,3486.09l20.61,30.51V2474.44l-27.47,33.11Z" transform="translate(0 -1285.47)"/>
        <path class="cls-7" d="M2911.09,2599l.76,794.67L2868,3437.53V2556.28Z" transform="translate(0 -1285.47)"/>
        <path class="cls-8" d="M4233,2556.28,4183.39,2599l-1272.3,0L2868,2556.28Z" transform="translate(0 -1285.47)"/>
        <path class="cls-9" d="M4183.39,2599l49.59-42.72v881.25l-49-49.05Z" transform="translate(0 -1285.47)"/>
        <path class="cls-10" d="M2911.85,3393.7l1272.08-5.22,49,49.05H2868Z" transform="translate(0 -1285.47)"/>
        <path class="cls-11" d="M4167.75,2614.66h-1241v758.19h1241Zm-1237.6,3.44H4164.32v751.31H2930.15Z" transform="translate(0 -1285.47)"/>
      </g>
      <g id="Sertar-Mj">
        <rect class="cls-1" x="2589.29" y="495.98" width="1916.21" height="476.92"/>
        <path class="cls-2" d="M4480.76,2233.62V1806.17H2614v427.45Zm-3.44-424H2617.45v420.59H4477.32Z" transform="translate(0 -1285.47)"/>
        <path class="cls-2" d="M4326.35,1854.34A26.34,26.34,0,0,0,4300,1828H2794.76a26.34,26.34,0,0,0-26.33,26.33v331.29a26.34,26.34,0,0,0,26.33,26.33H4300a26.34,26.34,0,0,0,26.33-26.33Zm-3.43,0a22.91,22.91,0,0,0-22.9-22.91H2794.76a22.91,22.91,0,0,0-22.9,22.91v331.29a22.91,22.91,0,0,0,22.9,22.91H4300a22.91,22.91,0,0,0,22.9-22.91Z" transform="translate(0 -1285.47)"/>
        <path class="cls-3" d="M2786.17,1848.53l33.12,33.12H4281.14l27.47-33.12Z" transform="translate(0 -1285.47)"/>
        <path class="cls-4" d="M2819.29,1881.65l-33.12-33.12v342.76l30.51-30.51Z" transform="translate(0 -1285.47)"/>
        <path class="cls-5" d="M2816.68,2160.78l-30.51,30.51H4308.61L4288,2160.78Z" transform="translate(0 -1285.47)"/>
        <path class="cls-6" d="M4288,2160.78l20.61,30.51V1848.53l-27.47,33.12Z" transform="translate(0 -1285.47)"/>
        <path class="cls-7" d="M2911.09,1973.12l.76,95.27L2868,2112.23V1930.38Z" transform="translate(0 -1285.47)"/>
        <path class="cls-8" d="M4233,1930.38l-49.59,42.72-1272.3,0L2868,1930.38Z" transform="translate(0 -1285.47)"/>
        <path class="cls-9" d="M4183.39,1973.1l49.59-42.72v181.85l-49-49.05Z" transform="translate(0 -1285.47)"/>
        <path class="cls-10" d="M2911.85,2068.39l1272.08-5.21,49,49.05H2868Z" transform="translate(0 -1285.47)"/>
        <path class="cls-11" d="M4167.75,1988.76h-1241v58.78h1241Zm-1237.6,3.43H4164.32v51.91H2930.15Z" transform="translate(0 -1285.47)"/>
      </g>
      <g id="Sertar-Sus">
        <rect class="cls-1" x="2589.29" y="0.01" width="1916.21" height="476.92"/>
        <path class="cls-2" d="M4480.76,1737.65V1310.2H2614v427.45Zm-3.44-424H2617.45v420.59H4477.32Z" transform="translate(0 -1285.47)"/>
        <path class="cls-2" d="M4326.35,1358.37A26.34,26.34,0,0,0,4300,1332H2794.76a26.34,26.34,0,0,0-26.33,26.33v331.29a26.34,26.34,0,0,0,26.33,26.33H4300a26.34,26.34,0,0,0,26.33-26.33Zm-3.43,0a22.91,22.91,0,0,0-22.9-22.91H2794.76a22.91,22.91,0,0,0-22.9,22.91v331.29a22.91,22.91,0,0,0,22.9,22.91H4300a22.91,22.91,0,0,0,22.9-22.91Z" transform="translate(0 -1285.47)"/>
        <path class="cls-3" d="M2786.17,1352.56l33.12,33.12H4281.14l27.47-33.12Z" transform="translate(0 -1285.47)"/>
        <path class="cls-4" d="M2819.29,1385.68l-33.12-33.12v342.76l30.51-30.51Z" transform="translate(0 -1285.47)"/>
        <path class="cls-5" d="M2816.68,1664.81l-30.51,30.51H4308.61L4288,1664.81Z" transform="translate(0 -1285.47)"/>
        <path class="cls-6" d="M4288,1664.81l20.61,30.51V1352.56l-27.47,33.12Z" transform="translate(0 -1285.47)"/>
        <path class="cls-7" d="M2911.09,1477.15l.76,95.27L2868,1616.25V1434.41Z" transform="translate(0 -1285.47)"/>
        <path class="cls-8" d="M4233,1434.41l-49.59,42.72-1272.3,0L2868,1434.41Z" transform="translate(0 -1285.47)"/>
        <path class="cls-9" d="M4183.39,1477.13l49.59-42.72v181.84l-49-49Z" transform="translate(0 -1285.47)"/>
        <path class="cls-10" d="M2911.85,1572.42l1272.08-5.22,49,49H2868Z" transform="translate(0 -1285.47)"/>
        <path class="cls-11" d="M4167.75,1492.79h-1241v58.78h1241Zm-1237.6,3.43H4164.32v51.91H2930.15Z" transform="translate(0 -1285.47)"/>
      </g>
      <g id="Usa-Mj">
        <rect class="cls-12" x="1294.64" width="1280.91" height="2428.13"/>
        <path class="cls-13" d="M2550.81,3688.85V1310.19H1319.37V3688.85Zm-3.43-2375.21H1322.81V3685.42H2547.38Z" transform="translate(0 -1285.47)"/>
        <path class="cls-13" d="M2396.41,1488.3a26.33,26.33,0,0,0-26.33-26.32h-870a26.32,26.32,0,0,0-26.32,26.32V3510.94a26.33,26.33,0,0,0,26.32,26.33h870a26.34,26.34,0,0,0,26.33-26.33Zm-3.44,0a22.89,22.89,0,0,0-22.89-22.9h-870a22.89,22.89,0,0,0-22.89,22.9V3510.94a22.9,22.9,0,0,0,22.89,22.91h870a22.9,22.9,0,0,0,22.89-22.91Z" transform="translate(0 -1285.47)"/>
        <path class="cls-14" d="M1491.53,1482.49l33.12,33.11h826.54l27.47-33.11Z" transform="translate(0 -1285.47)"/>
        <path class="cls-15" d="M1524.65,1515.6l-33.12-33.11V3516.6l30.5-30.51Z" transform="translate(0 -1285.47)"/>
        <path class="cls-16" d="M1522,3486.09l-30.5,30.51h887.13l-20.6-30.51Z" transform="translate(0 -1285.47)"/>
        <path class="cls-6" d="M2358.06,3486.09l20.6,30.51V1482.49l-27.47,33.11Z" transform="translate(0 -1285.47)"/>
        <path class="cls-7" d="M1616.44,1607.09l.77,1786.61-43.84,43.83V1564.33Z" transform="translate(0 -1285.47)"/>
        <path class="cls-17" d="M2303,1564.33l-49.58,42.72-637,0-43.07-42.74Z" transform="translate(0 -1285.47)"/>
        <path class="cls-18" d="M2253.45,1607.05l49.58-42.72v1873.2L2254,3388.48Z" transform="translate(0 -1285.47)"/>
        <path class="cls-19" d="M1617.21,3393.7l636.77-5.22,49.05,49.05H1573.37Z" transform="translate(0 -1285.47)"/>
        <path class="cls-20" d="M2237.81,1622.71H1632.07V3372.85h605.74Zm-602.3,3.43h598.86V3369.41H1635.51Z" transform="translate(0 -1285.47)"/>
      </g>
      <g id="Usa-St">
        <rect class="cls-12" width="1280.91" height="2428.13"/>
        <path class="cls-13" d="M1256.17,3688.85V1310.19H24.73V3688.85Zm-3.43-2375.21H28.17V3685.42H1252.74Z" transform="translate(0 -1285.47)"/>
        <path class="cls-13" d="M1101.76,1488.3a26.32,26.32,0,0,0-26.32-26.32h-870a26.33,26.33,0,0,0-26.33,26.32V3510.94a26.34,26.34,0,0,0,26.33,26.33h870a26.33,26.33,0,0,0,26.32-26.33Zm-3.43,0a22.89,22.89,0,0,0-22.89-22.9h-870a22.89,22.89,0,0,0-22.89,22.9V3510.94a22.9,22.9,0,0,0,22.89,22.91h870a22.9,22.9,0,0,0,22.89-22.91Z" transform="translate(0 -1285.47)"/>
        <path class="cls-14" d="M196.89,1482.49,230,1515.6h826.55l27.47-33.11Z" transform="translate(0 -1285.47)"/>
        <path class="cls-15" d="M230,1515.6l-33.11-33.11V3516.6l30.5-30.51Z" transform="translate(0 -1285.47)"/>
        <path class="cls-16" d="M227.39,3486.09l-30.5,30.51H1084l-20.6-30.51Z" transform="translate(0 -1285.47)"/>
        <path class="cls-6" d="M1063.42,3486.09l20.6,30.51V1482.49l-27.47,33.11Z" transform="translate(0 -1285.47)"/>
        <path class="cls-7" d="M321.8,1607.09l.77,1786.61-43.84,43.83V1564.33Z" transform="translate(0 -1285.47)"/>
        <path class="cls-17" d="M1008.39,1564.33l-49.59,42.72-637,0-43.07-42.74Z" transform="translate(0 -1285.47)"/>
        <path class="cls-18" d="M958.8,1607.05l49.59-42.72v1873.2l-49-49.05Z" transform="translate(0 -1285.47)"/>
        <path class="cls-19" d="M322.57,3393.7l636.77-5.22,49,49.05H278.73Z" transform="translate(0 -1285.47)"/>
        <path class="cls-20" d="M943.17,1622.71H337.43V3372.85H943.17Zm-602.3,3.43H939.73V3369.41H340.87Z" transform="translate(0 -1285.47)"/>
      </g>
    </g>
    <g id="Sertar-Jos-2" data-name="Sertar-Jos">
      <rect class="cls-12" x="2587" y="993.59" width="1913.92" height="1434.54"/>
      <path class="cls-13" d="M4476.18,3688.85V2303.79H2611.73V3688.85Zm-3.44-1381.63H2615.16v1378.2H4472.74Z" transform="translate(0 -1285.47)"/>
      <path class="cls-13" d="M4321.77,2481.84a26.32,26.32,0,0,0-26.33-26.32h-1503a26.33,26.33,0,0,0-26.33,26.32v1029.1a26.34,26.34,0,0,0,26.33,26.33h1503a26.33,26.33,0,0,0,26.33-26.33Zm-3.43,0a22.9,22.9,0,0,0-22.9-22.9h-1503a22.9,22.9,0,0,0-22.9,22.9v1029.1a22.91,22.91,0,0,0,22.9,22.91h1503a22.91,22.91,0,0,0,22.9-22.91Z" transform="translate(0 -1285.47)"/>
      <path class="cls-14" d="M2783.88,2476.08l33.12,33.11H4276.56l27.47-33.11Z" transform="translate(0 -1285.47)"/>
      <path class="cls-15" d="M2817,2509.19l-33.12-33.11V3516.6l30.51-30.51Z" transform="translate(0 -1285.47)"/>
      <path class="cls-16" d="M2814.39,3486.09l-30.51,30.51H4304l-20.61-30.51Z" transform="translate(0 -1285.47)"/>
      <path class="cls-6" d="M4283.42,3486.09,4304,3516.6V2476.08l-27.47,33.11Z" transform="translate(0 -1285.47)"/>
      <path class="cls-7" d="M2908.8,2600.68l.76,793-43.83,43.83V2557.92Z" transform="translate(0 -1285.47)"/>
      <path class="cls-17" d="M4228.4,2557.92l-49.59,42.72-1270,0-43.07-42.74Z" transform="translate(0 -1285.47)"/>
      <path class="cls-18" d="M4178.81,2600.64l49.59-42.72v879.61l-49-49.05Z" transform="translate(0 -1285.47)"/>
      <path class="cls-19" d="M2909.56,3393.7l1269.79-5.22,49,49.05H2865.73Z" transform="translate(0 -1285.47)"/>
      <path class="cls-7" d="M2908.8,2600.66l15.63,15.67,1238.75.82,15.63-16.49Z" transform="translate(0 -1285.47)"/>
      <path class="cls-21" d="M2908.8,2600.68l.76,793,14.87-20.85,0-756.52Z" transform="translate(0 -1285.47)"/>
      <path class="cls-7" d="M2924.43,3372.85l-14.87,20.85,1269.79-5.22-16.17-15.63Z" transform="translate(0 -1285.47)"/>
      <path class="cls-21" d="M4178.81,2600.68l.54,787.8-16.12-15.63v-755.7Z" transform="translate(0 -1285.47)"/>
      <path class="cls-20" d="M4163.18,2616.3H2924.43v756.55H4163.18Zm-1235.32,3.43H4159.74v749.68H2927.86Z" transform="translate(0 -1285.47)"/>
    </g>
    <g id="Sertar-Mj1">
      <rect class="cls-12" x="2587" y="496.79" width="1913.92" height="481.01"/>
      <path class="cls-13" d="M4476.18,2238.54V1807H2611.73v431.55Zm-3.44-428.11H2615.16v424.68H4472.74Z" transform="translate(0 -1285.47)"/>
      <path class="cls-13" d="M4321.94,1854.28a26.33,26.33,0,0,0-26.33-26.32h-1503a26.32,26.32,0,0,0-26.32,26.32c0,211-.34,126.16-.34,337.11a26.34,26.34,0,0,0,26.33,26.33h1503a26.34,26.34,0,0,0,26.33-26.33C4321.61,1980.44,4321.94,2065.23,4321.94,1854.28Zm-3.44,0a22.85,22.85,0,0,0-22.89-22.73h-1503a22.86,22.86,0,0,0-22.89,22.73c0,211-.33,126.16-.33,337.11a22.9,22.9,0,0,0,22.89,22.91h1503a22.91,22.91,0,0,0,22.9-22.91C4318.18,1980.44,4318.5,2065.23,4318.5,1854.28Z" transform="translate(0 -1285.47)"/>
      <path class="cls-14" d="M2784.05,1848.56l33.11,33.12H4276.72l27.48-33.12Z" transform="translate(0 -1285.47)"/>
      <path class="cls-15" d="M2817.16,1881.68l-33.11-33.12-.33,348.43,30.5-30.5Z" transform="translate(0 -1285.47)"/>
      <path class="cls-16" d="M2814.22,2166.49l-30.5,30.5H4303.86l-20.6-30.5Z" transform="translate(0 -1285.47)"/>
      <path class="cls-6" d="M4283.26,2166.49l20.6,30.5.34-348.43-27.48,33.12Z" transform="translate(0 -1285.47)"/>
      <path class="cls-7" d="M2909,1973.16l.44,100.94-43.84,43.83.33-187.52Z" transform="translate(0 -1285.47)"/>
      <path class="cls-17" d="M4228.57,1930.41,4179,1973.13l-1270,0-43.07-42.74Z" transform="translate(0 -1285.47)"/>
      <path class="cls-18" d="M4179,1973.13l49.59-42.72-.34,187.52-49-49Z" transform="translate(0 -1285.47)"/>
      <path class="cls-19" d="M2909.4,2074.1l1269.78-5.22,49,49H2865.56Z" transform="translate(0 -1285.47)"/>
      <path class="cls-7" d="M2909,1973.15l15.63,15.67,1238.75.81,15.64-16.48Z" transform="translate(0 -1285.47)"/>
      <path class="cls-21" d="M2909,1973.16l.43,100.94,14.86-20.86.3-64.42Z" transform="translate(0 -1285.47)"/>
      <path class="cls-7" d="M2924.26,2053.24l-14.86,20.86,1269.78-5.22L4163,2053.24Z" transform="translate(0 -1285.47)"/>
      <path class="cls-21" d="M4179,1973.16l.2,95.72-16.11-15.64.33-63.61Z" transform="translate(0 -1285.47)"/>
      <path class="cls-20" d="M4163.34,1988.79H2924.59l-.33,64.45H4163ZM2928,1992.22H4159.91l-.33,57.59H2927.7Z" transform="translate(0 -1285.47)"/>
    </g>
    <g id="Sertar-Sus1">
      <rect class="cls-12" x="2587" width="1913.92" height="481.01"/>
      <path class="cls-13" d="M4476.18,1741.75V1310.19H2611.73v431.56Zm-3.44-428.11H2615.16v424.68H4472.74Z" transform="translate(0 -1285.47)"/>
      <path class="cls-13" d="M4321.94,1357.49a26.34,26.34,0,0,0-26.33-26.33h-1503a26.33,26.33,0,0,0-26.32,26.33c0,211-.34,126.16-.34,337.11a26.33,26.33,0,0,0,26.33,26.32h1503a26.33,26.33,0,0,0,26.33-26.32C4321.61,1483.65,4321.94,1568.44,4321.94,1357.49Zm-3.44,0a22.86,22.86,0,0,0-22.89-22.74h-1503a22.87,22.87,0,0,0-22.89,22.74c0,211-.33,126.16-.33,337.11a22.89,22.89,0,0,0,22.89,22.9h1503a22.9,22.9,0,0,0,22.9-22.9C4318.18,1483.65,4318.5,1568.44,4318.5,1357.49Z" transform="translate(0 -1285.47)"/>
      <path class="cls-14" d="M2784.05,1351.77l33.11,33.11H4276.72l27.48-33.11Z" transform="translate(0 -1285.47)"/>
      <path class="cls-15" d="M2817.16,1384.88l-33.11-33.11-.33,348.43,30.5-30.51Z" transform="translate(0 -1285.47)"/>
      <path class="cls-16" d="M2814.22,1669.69l-30.5,30.51H4303.86l-20.6-30.51Z" transform="translate(0 -1285.47)"/>
      <path class="cls-6" d="M4283.26,1669.69l20.6,30.51.34-348.43-27.48,33.11Z" transform="translate(0 -1285.47)"/>
      <path class="cls-7" d="M2909,1476.37l.44,100.94-43.84,43.83.33-187.53Z" transform="translate(0 -1285.47)"/>
      <path class="cls-17" d="M4228.57,1433.61,4179,1476.33l-1270,0-43.07-42.75Z" transform="translate(0 -1285.47)"/>
      <path class="cls-18" d="M4179,1476.33l49.59-42.72-.34,187.53-49-49.05Z" transform="translate(0 -1285.47)"/>
      <path class="cls-19" d="M2909.4,1577.31l1269.78-5.22,49,49.05H2865.56Z" transform="translate(0 -1285.47)"/>
      <path class="cls-7" d="M2909,1476.36l15.63,15.67,1238.75.81,15.64-16.48Z" transform="translate(0 -1285.47)"/>
      <path class="cls-21" d="M2909,1476.37l.43,100.94,14.86-20.86.3-64.42Z" transform="translate(0 -1285.47)"/>
      <path class="cls-7" d="M2924.26,1556.45l-14.86,20.86,1269.78-5.22L4163,1556.45Z" transform="translate(0 -1285.47)"/>
      <path class="cls-21" d="M4179,1476.37l.2,95.72-16.11-15.64.33-63.61Z" transform="translate(0 -1285.47)"/>
      <path class="cls-20" d="M4163.34,1492H2924.59l-.33,64.46H4163ZM2928,1495.43H4159.91l-.33,57.59H2927.7Z" transform="translate(0 -1285.47)"/>
    </g>
    <g id="Sertar-Sus2">
      <rect class="cls-12" x="4518.99" width="481.01" height="2428.12"/>
      <path class="cls-13" d="M4543.73,3688.87h431.55V1310.2H4543.73Zm428.11-3.43V1313.64H4547.15v2371.8Z" transform="translate(0 -1285.47)"/>
      <path class="cls-13" d="M4928,3534.62a26.33,26.33,0,0,0,26.32-26.33V1491.11a26.33,26.33,0,0,0-26.32-26.33c-210.95,0-126.16-.33-337.11-.33a26.34,26.34,0,0,0-26.33,26.33V3508a26.34,26.34,0,0,0,26.33,26.33C4801.83,3534.29,4717,3534.62,4928,3534.62Zm0-3.44a22.85,22.85,0,0,0,22.73-22.89V1491.11a22.86,22.86,0,0,0-22.73-22.89c-210.95,0-126.16-.34-337.11-.34a22.91,22.91,0,0,0-22.91,22.9V3508a22.91,22.91,0,0,0,22.91,22.9C4801.83,3530.86,4717,3531.18,4928,3531.18Z" transform="translate(0 -1285.47)"/>
      <path class="cls-6" d="M4933.71,1482.53l-33.12,33.11V3489.41l33.12,27.47Z" transform="translate(0 -1285.47)"/>
      <path class="cls-14" d="M4900.59,1515.64l33.12-33.11-348.44-.34,30.51,30.51Z" transform="translate(0 -1285.47)"/>
      <path class="cls-15" d="M4615.78,1512.7l-30.51-30.51V3516.55l30.51-27.14Z" transform="translate(0 -1285.47)"/>
      <path class="cls-16" d="M4615.78,3489.41l-30.51,27.14,348.44.33-33.12-27.47Z" transform="translate(0 -1285.47)"/>
      <path class="cls-17" d="M4809.11,1607.44l-100.94.43L4664.34,1564l187.52.33Z" transform="translate(0 -1285.47)"/>
      <path class="cls-18" d="M4851.86,3441.25l-42.72-49.59,0-1784.22,42.74-43.07Z" transform="translate(0 -1285.47)"/>
      <path class="cls-19" d="M4809.14,3391.66l42.72,49.59-187.52-.33,49.05-49.05Z" transform="translate(0 -1285.47)"/>
      <path class="cls-7" d="M4708.17,1607.87l5.22,1784-49.05,49.05V1564Z" transform="translate(0 -1285.47)"/>
      <path class="cls-21" d="M4809.12,1607.44l-15.67,15.63-.82,1753,16.49,15.64Z" transform="translate(0 -1285.47)"/>
      <path class="cls-7" d="M4809.11,1607.44l-100.94.43,20.85,14.87,64.43.3Z" transform="translate(0 -1285.47)"/>
      <path class="cls-21" d="M4729,1622.74l-20.85-14.87,5.22,1784,15.63-16.18Z" transform="translate(0 -1285.47)"/>
      <path class="cls-7" d="M4809.11,3391.66l-95.72.21,15.63-16.12,63.61.33Z" transform="translate(0 -1285.47)"/>
      <path class="cls-20" d="M4793.48,3376V1623.07l-64.46-.33v1753Zm-3.43-1749.51V3372.59l-57.59-.33V1626.17Z" transform="translate(0 -1285.47)"/>
    </g>
    <g id="Usa-Mj1">
      <rect class="cls-12" width="1280.91" height="2428.13"/>
      <path class="cls-13" d="M1256.17,3688.85V1310.19H24.73V3688.85Zm-3.43-2375.21H28.17V3685.42H1252.74Z" transform="translate(0 -1285.47)"/>
      <path class="cls-13" d="M1101.76,1488.3a26.32,26.32,0,0,0-26.32-26.32h-870a26.33,26.33,0,0,0-26.33,26.32V3510.94a26.34,26.34,0,0,0,26.33,26.33h870a26.33,26.33,0,0,0,26.32-26.33Zm-3.43,0a22.89,22.89,0,0,0-22.89-22.9h-870a22.89,22.89,0,0,0-22.89,22.9V3510.94a22.9,22.9,0,0,0,22.89,22.91h870a22.9,22.9,0,0,0,22.89-22.91Z" transform="translate(0 -1285.47)"/>
      <path class="cls-14" d="M196.89,1482.49,230,1515.6h826.55l27.47-33.11Z" transform="translate(0 -1285.47)"/>
      <path class="cls-15" d="M230,1515.6l-33.11-33.11V3516.6l30.5-30.51Z" transform="translate(0 -1285.47)"/>
      <path class="cls-16" d="M227.39,3486.09l-30.5,30.51H1084l-20.6-30.51Z" transform="translate(0 -1285.47)"/>
      <path class="cls-6" d="M1063.42,3486.09l20.6,30.51V1482.49l-27.47,33.11Z" transform="translate(0 -1285.47)"/>
      <path class="cls-7" d="M321.8,1607.09l.77,1786.61-43.84,43.83V1564.33Z" transform="translate(0 -1285.47)"/>
      <path class="cls-17" d="M1008.39,1564.33l-49.59,42.72-637,0-43.07-42.74Z" transform="translate(0 -1285.47)"/>
      <path class="cls-18" d="M958.8,1607.05l49.59-42.72v1873.2l-49-49.05Z" transform="translate(0 -1285.47)"/>
      <path class="cls-19" d="M322.57,3393.7l636.77-5.22,49,49.05H278.73Z" transform="translate(0 -1285.47)"/>
      <path class="cls-7" d="M321.8,1607.07l15.63,15.67,605.74.82,15.63-16.49Z" transform="translate(0 -1285.47)"/>
      <path class="cls-21" d="M321.8,1607.09l.77,1786.61,14.86-20.85,0-1750.11Z" transform="translate(0 -1285.47)"/>
      <path class="cls-7" d="M337.43,3372.85l-14.86,20.85,636.77-5.22-16.17-15.63Z" transform="translate(0 -1285.47)"/>
      <path class="cls-21" d="M958.8,1607.09l.54,1781.39-16.12-15.63V1623.56Z" transform="translate(0 -1285.47)"/>
      <path class="cls-20" d="M943.17,1622.71H337.43V3372.85H943.17Zm-602.3,3.43H939.73V3369.41H340.87Z" transform="translate(0 -1285.47)"/>
    </g>
    <g id="Usa-St1">
      <rect class="cls-12" x="1293.5" width="1280.91" height="2428.13"/>
      <path class="cls-13" d="M2549.67,3688.85V1310.19H1318.23V3688.85Zm-3.44-2375.21H1321.66V3685.42H2546.23Z" transform="translate(0 -1285.47)"/>
      <path class="cls-13" d="M2395.26,1488.3a26.33,26.33,0,0,0-26.33-26.32H1499a26.33,26.33,0,0,0-26.33,26.32V3510.94a26.34,26.34,0,0,0,26.33,26.33h870a26.34,26.34,0,0,0,26.33-26.33Zm-3.43,0a22.9,22.9,0,0,0-22.9-22.9H1499a22.89,22.89,0,0,0-22.89,22.9V3510.94a22.9,22.9,0,0,0,22.89,22.91h870a22.91,22.91,0,0,0,22.9-22.91Z" transform="translate(0 -1285.47)"/>
      <path class="cls-14" d="M1490.38,1482.49l33.12,33.11h826.55l27.47-33.11Z" transform="translate(0 -1285.47)"/>
      <path class="cls-15" d="M1523.5,1515.6l-33.12-33.11V3516.6l30.51-30.51Z" transform="translate(0 -1285.47)"/>
      <path class="cls-16" d="M1520.89,3486.09l-30.51,30.51h887.14l-20.61-30.51Z" transform="translate(0 -1285.47)"/>
      <path class="cls-6" d="M2356.91,3486.09l20.61,30.51V1482.49l-27.47,33.11Z" transform="translate(0 -1285.47)"/>
      <path class="cls-7" d="M1615.3,1607.09l.76,1786.61-43.83,43.83V1564.33Z" transform="translate(0 -1285.47)"/>
      <path class="cls-17" d="M2301.89,1564.33l-49.59,42.72-637,0-43.07-42.74Z" transform="translate(0 -1285.47)"/>
      <path class="cls-18" d="M2252.3,1607.05l49.59-42.72v1873.2l-49-49.05Z" transform="translate(0 -1285.47)"/>
      <path class="cls-19" d="M1616.06,3393.7l636.78-5.22,49,49.05H1572.23Z" transform="translate(0 -1285.47)"/>
      <path class="cls-7" d="M1615.3,1607.07l15.63,15.67,605.73.82,15.64-16.49Z" transform="translate(0 -1285.47)"/>
      <path class="cls-21" d="M1615.3,1607.09l.76,1786.61,14.87-20.85,0-1750.11Z" transform="translate(0 -1285.47)"/>
      <path class="cls-7" d="M1630.93,3372.85l-14.87,20.85,636.78-5.22-16.18-15.63Z" transform="translate(0 -1285.47)"/>
      <path class="cls-21" d="M2252.3,1607.09l.54,1781.39-16.12-15.63V1623.56Z" transform="translate(0 -1285.47)"/>
      <path class="cls-20" d="M2236.66,1622.71H1630.93V3372.85h605.73Zm-602.3,3.43h598.87V3369.41H1634.36Z" transform="translate(0 -1285.47)"/>
    </g>
  </g>
</svg>
