<svg id="Layer_1" data-name="Layer 1" xmlns="http://www.w3.org/2000/svg" viewBox="0 0 4368 2121.21">
  <defs>
    <style>
      .cls-1 {
        fill: #aabf9e;
      }

      .cls-1, .cls-10, .cls-11, .cls-12, .cls-13, .cls-14, .cls-2, .cls-3, .cls-4, .cls-5, .cls-6, .cls-7, .cls-8, .cls-9 {
        fill-rule: evenodd;
      }

      .cls-2 {
        fill: #aabf9f;
      }

      .cls-3 {
        fill: #8a9b82;
      }

      .cls-4 {
        fill: #9db48f;
      }

      .cls-5 {
        fill: #bed5b1;
      }

      .cls-6 {
        fill: #93a589;
      }

      .cls-7 {
        fill: #6d7a66;
      }

      .cls-8 {
        fill: #a0b496;
      }

      .cls-9 {
        fill: #7e8e76;
      }

      .cls-10 {
        fill: #a3b697;
      }

      .cls-11 {
        fill: #bdd4af;
      }

      .cls-12 {
        fill: #a3b798;
      }

      .cls-13 {
        fill: #aec3a2;
      }

      .cls-14 {
        fill: #96a58f;
      }
    </style>
  </defs>
  <title>frezari_1</title>
  <g>
    <polygon class="cls-1" points="4368 0 3950.52 0 3950.52 2121.21 4368 2121.21 4368 0 4368 0"/>
    <polygon class="cls-2" points="3974.12 23.61 4344.4 23.61 4344.4 2097.61 3974.12 2097.61 3974.12 23.61 3974.12 23.61"/>
    <path class="cls-3" d="M4290.12,1463.6h370.27v2074H4290.12v-2074Zm4.45,4.45H4656V3533.16H4294.57V1468.05Z" transform="translate(-316 -1440)"/>
    <path class="cls-1" d="M4628.65,3395.6V1664.4c-103.41-73.13-206.83-72.54-310.24,0V3395.6a12,12,0,0,0,12,12h286.24a12,12,0,0,0,12-12Z" transform="translate(-316 -1440)"/>
    <path class="cls-3" d="M4628.65,3395.6V1667a5.18,5.18,0,0,0-2.08-4.23q-153-109.41-306.07,0a5.16,5.16,0,0,0-2.09,4.22V3395.6a12,12,0,0,0,12,12h286.24a12,12,0,0,0,12-12Zm-6.17-1730.25a5.16,5.16,0,0,1,2.08,4.23c0,74.81,0,1726,0,1726a7.92,7.92,0,0,1-7.92,7.92H4330.41a7.92,7.92,0,0,1-7.92-7.92v-1726a5.16,5.16,0,0,1,2.11-4.24c99.29-70.08,198.58-70.67,297.88,0Z" transform="translate(-316 -1440)"/>
    <path class="cls-4" d="M4334,1676.6q139.52-100.68,279,0V3392H4334V1676.6Z" transform="translate(-316 -1440)"/>
    <path class="cls-2" d="M4590.65,1690.24V3369.61H4356.4V1690.27c78.09-53.06,156.17-50.64,234.25,0Z" transform="translate(-316 -1440)"/>
    <path class="cls-4" d="M4613.05,1676.6V3392H4334V1676.6c93-68.47,186-66.23,279,0Zm-22.4,13.64V3369.61H4356.4V1690.27c78.09-52,156.17-51.67,234.25,0Z" transform="translate(-316 -1440)"/>
    <polygon class="cls-5" points="4040.4 1929.61 4018 1952.01 4297.05 1952.01 4274.65 1929.61 4040.4 1929.61 4040.4 1929.61"/>
    <polygon class="cls-6" points="4297.05 1952.01 4297.05 236.6 4274.65 250.24 4274.65 1929.61 4297.05 1952.01 4297.05 1952.01"/>
    <path class="cls-7" d="M4613.05,1676.6c-93-66-186-68.13-279,0l22.39,13.67q117.14-77.65,234.25,0" transform="translate(-316 -1440)"/>
    <polygon class="cls-8" points="4018.01 236.6 4018.01 1952.01 4040.4 1929.32 4040.41 250.27 4018.01 236.6 4018.01 236.6"/>
    <path class="cls-4" d="M4542.71,1696v1624.7h-143.9V1696c77.11-38.42,143.9-.06,143.9-.06Z" transform="translate(-316 -1440)"/>
    <polygon class="cls-9" points="4082.81 1880.66 4118.98 1844.48 4191.14 1844.48 4226.71 1880.66 4082.81 1880.66 4082.81 1880.66"/>
    <polygon class="cls-10" points="4191.14 1844.48 4191.14 278.28 4226.71 255.96 4226.71 1880.66 4191.14 1844.48 4191.14 1844.48"/>
    <path class="cls-11" d="M4398.81,1696c.06-.06,66.8-38.42,143.9-.06l-35.57,22.32c-.1,0-36.38-16.83-72.59,0L4398.81,1696Z" transform="translate(-316 -1440)"/>
    <polygon class="cls-12" points="4118.55 278.28 4118.55 1845.09 4082.8 1880.66 4082.81 256.02 4118.55 278.28 4118.55 278.28"/>
    <path class="cls-1" d="M4507.14,1718.28V3285.09h-72.76V1718.36s36.38-17.06,72.76-.08Z" transform="translate(-316 -1440)"/>
    <path class="cls-13" d="M4481.84,1728.69a5.58,5.58,0,0,1,5.59,5.58V3259.4a6,6,0,0,1-6,6h-27.36V1734.27a5.58,5.58,0,0,1,5.58-5.58Z" transform="translate(-316 -1440)"/>
    <path class="cls-14" d="M4454.09,1734.27a5.58,5.58,0,0,1,5.58-5.58h22.12a5.63,5.63,0,0,1,5.64,5.64V3259.4a6,6,0,0,1-6,6h-21.84a5.5,5.5,0,0,1-5.52-5.51V1734.27Zm27.78.28V3259.4a.42.42,0,0,1-.42.43h-21.81v-32.64c0-221.34,0-1397.73,0-1492.27a.44.44,0,0,1,.25-.39,28,28,0,0,1,22,0Z" transform="translate(-316 -1440)"/>
    <polygon class="cls-1" points="3936.02 976 2261 976 2261 2121.21 3936.02 2121.21 3936.02 976 3936.02 976"/>
    <polygon class="cls-2" points="2284.61 999.61 3912.41 999.61 3912.41 2097.61 2284.61 2097.61 2284.61 999.61 2284.61 999.61"/>
    <path class="cls-3" d="M2600.6,2439.6H4228.41v1098H2600.6v-1098Zm4.45,4.45H4224V3533.16H2605.05V2444.05Z" transform="translate(-316 -1440)"/>
    <path class="cls-1" d="M4098.41,2691.86a12,12,0,0,0-6.13-10.46c-265.51-148.57-1090-148.17-1355.53,0a12,12,0,0,0-6.14,10.47V3395.6a12,12,0,0,0,12,12h1343.8a12,12,0,0,0,12-12V2691.86Z" transform="translate(-316 -1440)"/>
    <path class="cls-3" d="M4098.41,2691.86a12,12,0,0,0-6.13-10.46c-265.51-148.57-1090-148.17-1355.53,0a12,12,0,0,0-6.14,10.47V3395.6a12,12,0,0,0,12,12h1343.8a12,12,0,0,0,12-12V2691.86Zm-4.09,0V3395.6a7.9,7.9,0,0,1-7.91,7.92H2742.61a7.92,7.92,0,0,1-7.92-7.92V2691.87a7.91,7.91,0,0,1,4-6.9c264.18-147.44,1087.37-147.83,1351.54,0a7.9,7.9,0,0,1,4,6.9Z" transform="translate(-316 -1440)"/>
    <path class="cls-4" d="M4082.81,2694v698H2746.2V2694c259.19-144,1077.39-144.36,1336.6,0Z" transform="translate(-316 -1440)"/>
    <path class="cls-2" d="M4060.41,2707.24v662.37H2768.6V2707.27c244.27-131.55,1047.54-131.91,1291.81,0Z" transform="translate(-316 -1440)"/>
    <path class="cls-4" d="M4082.81,2694v698H2746.2V2694c259.19-144,1077.39-144.36,1336.6,0Zm-22.4,13.26v662.37H2768.6V2707.27c244.27-131.55,1047.54-131.91,1291.81,0Z" transform="translate(-316 -1440)"/>
    <polygon class="cls-5" points="2452.6 1929.61 2430.2 1952.01 3766.81 1952.01 3744.41 1929.61 2452.6 1929.61 2452.6 1929.61"/>
    <polygon class="cls-6" points="3766.81 1952.01 3766.81 1253.61 3744.41 1267.24 3744.41 1929.61 3766.81 1952.01 3766.81 1952.01"/>
    <path class="cls-7" d="M4082.81,2693.6c-259.19-143.69-1077.41-143.56-1336.6,0l22.39,13.67c244.27-131.79,1047.55-131.53,1291.81,0" transform="translate(-316 -1440)"/>
    <polygon class="cls-8" points="2430.21 1253.61 2430.21 1952.01 2452.6 1929.32 2452.61 1267.27 2430.21 1253.61 2430.21 1253.61"/>
    <path class="cls-4" d="M4011.47,2737v583.7H2817.55V2737c211.63-105.45,982.27-105.75,1193.92-.06Z" transform="translate(-316 -1440)"/>
    <polygon class="cls-9" points="2501.55 1880.66 2537.73 1844.48 3659.9 1844.48 3695.47 1880.66 2501.55 1880.66 2501.55 1880.66"/>
    <polygon class="cls-10" points="3659.9 1844.48 3659.9 1319.28 3695.47 1296.96 3695.47 1880.66 3659.9 1844.48 3659.9 1844.48"/>
    <path class="cls-11" d="M2817.55,2737c211.63-105.81,982.28-105.35,1193.92-.06l-35.57,22.32c-187.87-87.78-934.74-87.31-1122.6,0L2817.55,2737Z" transform="translate(-316 -1440)"/>
    <polygon class="cls-12" points="2537.3 1319.28 2537.3 1845.09 2501.55 1880.66 2501.55 1297.02 2537.3 1319.28 2537.3 1319.28"/>
    <path class="cls-1" d="M2817.55,3369.52v.09h0v-.09ZM3975.9,2759.94v525.15H2853.12V2760c111.6-45.24,336.59-66.59,561.39-66.64s449.8,21.23,561.39,66.56Z" transform="translate(-316 -1440)"/>
    <path class="cls-13" d="M3956.19,2771.94V3259.4a6,6,0,0,1-6,6H2872.83V2775.92a6,6,0,0,1,3.57-5.47c173.59-76.42,906.19-76.11,1079.79,1.49Z" transform="translate(-316 -1440)"/>
    <path class="cls-14" d="M3953.21,2770.62l3,1.32h0V3259.4a6,6,0,0,1-6,6H2872.83V2775.92a6,6,0,0,1,3.57-5.47c171.89-75.67,902.79-76.11,1074.7-.76l2.11.93Zm-2.58,4.93V3259.4a.42.42,0,0,1-.42.43H2878.39V2775.92a.43.43,0,0,1,.25-.39c171-75.27,901-75.45,1072,0Z" transform="translate(-316 -1440)"/>
    <polygon class="cls-1" points="3936.02 488 2261 488 2261 964.45 3936.02 964.45 3936.02 488 3936.02 488"/>
    <polygon class="cls-2" points="2284.61 511.61 3912.41 511.61 3912.41 940.84 2284.61 940.84 2284.61 511.61 2284.61 511.61"/>
    <path class="cls-3" d="M2600.6,1951.6H4228.41v429.24H2600.6V1951.6Zm4.45,4.45H4224v420.34H2605.05V1956.05Z" transform="translate(-316 -1440)"/>
    <path class="cls-1" d="M4098.41,2104.86a12,12,0,0,0-6.13-10.46c-265.51-148.57-1090-148.17-1355.53,0a12,12,0,0,0-6.14,10.47v235.82a12,12,0,0,0,12,12h1343.8a12,12,0,0,0,12-12V2104.86Z" transform="translate(-316 -1440)"/>
    <path class="cls-3" d="M4098.41,2104.86a12,12,0,0,0-6.13-10.46c-265.51-148.57-1090-148.17-1355.53,0a12,12,0,0,0-6.14,10.47v235.82a12,12,0,0,0,12,12h1343.8a12,12,0,0,0,12-12V2104.86Zm-4.09,0v235.83a7.9,7.9,0,0,1-7.91,7.92H2742.61a7.92,7.92,0,0,1-7.92-7.92V2104.87a7.91,7.91,0,0,1,4-6.9c264.18-147.44,1087.37-147.83,1351.54,0a7.9,7.9,0,0,1,4,6.9Z" transform="translate(-316 -1440)"/>
    <path class="cls-4" d="M4082.81,2107V2337.1H2746.2V2107c259.19-144,1077.39-144.36,1336.6,0Z" transform="translate(-316 -1440)"/>
    <path class="cls-2" d="M4060.41,2120.24V2314.7H2768.6V2120.27c244.27-131.55,1047.54-131.91,1291.81,0Z" transform="translate(-316 -1440)"/>
    <path class="cls-4" d="M4082.81,2107V2337.1H2746.2V2107c259.19-144,1077.39-144.36,1336.6,0Zm-22.4,13.26V2314.7H2768.6V2120.27c244.27-131.55,1047.54-131.91,1291.81,0Z" transform="translate(-316 -1440)"/>
    <polygon class="cls-5" points="2452.6 874.7 2430.2 897.1 3766.81 897.1 3744.41 874.7 2452.6 874.7 2452.6 874.7"/>
    <polygon class="cls-6" points="3766.81 897.1 3766.81 666.61 3744.41 680.24 3744.41 874.7 3766.81 897.1 3766.81 897.1"/>
    <path class="cls-7" d="M4082.81,2106.6c-259.19-143.69-1077.41-143.56-1336.6,0l22.39,13.67c244.27-131.79,1047.55-131.53,1291.81,0" transform="translate(-316 -1440)"/>
    <polygon class="cls-8" points="2430.21 666.61 2430.21 897.1 2452.6 874.4 2452.61 680.27 2430.21 666.61 2430.21 666.61"/>
    <path class="cls-4" d="M4011.47,2150v115.79H2817.55V2150c211.63-105.45,982.27-105.75,1193.92-.06Z" transform="translate(-316 -1440)"/>
    <polygon class="cls-9" points="2501.55 825.75 2537.73 789.57 3659.9 789.57 3695.47 825.75 2501.55 825.75 2501.55 825.75"/>
    <polygon class="cls-10" points="3659.9 789.57 3659.9 732.28 3695.47 709.96 3695.47 825.75 3659.9 789.57 3659.9 789.57"/>
    <path class="cls-11" d="M2817.55,2150c211.63-105.81,982.28-105.35,1193.92-.06l-35.57,22.32c-187.87-87.78-934.74-87.31-1122.6,0L2817.55,2150Z" transform="translate(-316 -1440)"/>
    <polygon class="cls-12" points="2537.3 732.28 2537.3 790.18 2501.55 825.75 2501.55 710.02 2537.3 732.28 2537.3 732.28"/>
    <path class="cls-1" d="M2817.55,2314.61v.09h0v-.09ZM3975.9,2172.94v57.24H2853.12V2173c111.6-45.24,336.59-66.59,561.39-66.63s449.8,21.22,561.39,66.55Z" transform="translate(-316 -1440)"/>
    <path class="cls-13" d="M3956.19,2184.94v19.55a6,6,0,0,1-6,6H2872.83v-21.55a6,6,0,0,1,3.57-5.47c173.59-76.42,906.19-76.11,1079.79,1.49Z" transform="translate(-316 -1440)"/>
    <path class="cls-14" d="M3953.21,2183.62l3,1.32h0v19.55a6,6,0,0,1-6,6H2872.83v-21.55a6,6,0,0,1,3.57-5.47c171.89-75.67,902.79-76.11,1074.7-.76l2.11.93Zm-2.58,4.93v15.94a.42.42,0,0,1-.42.43H2878.39v-16a.44.44,0,0,1,.25-.39c171-75.27,901-75.45,1072,0Z" transform="translate(-316 -1440)"/>
    <polygon class="cls-1" points="3936.02 0 2261 0 2261 476.45 3936.02 476.45 3936.02 0 3936.02 0"/>
    <polygon class="cls-2" points="2284.61 23.61 3912.41 23.61 3912.41 452.84 2284.61 452.84 2284.61 23.61 2284.61 23.61"/>
    <path class="cls-3" d="M2600.6,1463.6H4228.41v429.24H2600.6V1463.6Zm4.45,4.45H4224v420.34H2605.05V1468.05Z" transform="translate(-316 -1440)"/>
    <path class="cls-1" d="M4098.41,1616.86a12,12,0,0,0-6.13-10.46c-265.51-148.57-1090-148.17-1355.53,0a12,12,0,0,0-6.14,10.47v235.82a12,12,0,0,0,12,12h1343.8a12,12,0,0,0,12-12V1616.86Z" transform="translate(-316 -1440)"/>
    <path class="cls-3" d="M4098.41,1616.86a12,12,0,0,0-6.13-10.46c-265.51-148.57-1090-148.17-1355.53,0a12,12,0,0,0-6.14,10.47v235.82a12,12,0,0,0,12,12h1343.8a12,12,0,0,0,12-12V1616.86Zm-4.09,0v235.83a7.9,7.9,0,0,1-7.91,7.92H2742.61a7.92,7.92,0,0,1-7.92-7.92V1616.87a7.91,7.91,0,0,1,4-6.9c264.18-147.44,1087.37-147.83,1351.54,0a7.9,7.9,0,0,1,4,6.9Z" transform="translate(-316 -1440)"/>
    <path class="cls-4" d="M4082.81,1619V1849.1H2746.2V1619c259.19-144,1077.39-144.36,1336.6,0Z" transform="translate(-316 -1440)"/>
    <path class="cls-2" d="M4060.41,1632.24V1826.7H2768.6V1632.27c244.27-131.55,1047.54-131.91,1291.81,0Z" transform="translate(-316 -1440)"/>
    <path class="cls-4" d="M4082.81,1619V1849.1H2746.2V1619c259.19-144,1077.39-144.36,1336.6,0Zm-22.4,13.26V1826.7H2768.6V1632.27c244.27-131.55,1047.54-131.91,1291.81,0Z" transform="translate(-316 -1440)"/>
    <polygon class="cls-5" points="2452.6 386.7 2430.2 409.1 3766.81 409.1 3744.41 386.7 2452.6 386.7 2452.6 386.7"/>
    <polygon class="cls-6" points="3766.81 409.1 3766.81 178.6 3744.41 192.24 3744.41 386.7 3766.81 409.1 3766.81 409.1"/>
    <path class="cls-7" d="M4082.81,1618.6c-259.19-143.69-1077.41-143.56-1336.6,0l22.39,13.67c244.27-131.79,1047.55-131.53,1291.81,0" transform="translate(-316 -1440)"/>
    <polygon class="cls-8" points="2430.21 178.6 2430.21 409.1 2452.6 386.4 2452.61 192.27 2430.21 178.6 2430.21 178.6"/>
    <path class="cls-4" d="M4011.47,1662v115.79H2817.55V1662c211.63-105.45,982.27-105.75,1193.92-.06Z" transform="translate(-316 -1440)"/>
    <polygon class="cls-9" points="2501.55 337.75 2537.73 301.57 3659.9 301.57 3695.47 337.75 2501.55 337.75 2501.55 337.75"/>
    <polygon class="cls-10" points="3659.9 301.57 3659.9 244.28 3695.47 221.96 3695.47 337.75 3659.9 301.57 3659.9 301.57"/>
    <path class="cls-11" d="M2817.55,1662c211.63-105.81,982.28-105.35,1193.92-.06l-35.57,22.32c-187.87-87.78-934.74-87.31-1122.6,0L2817.55,1662Z" transform="translate(-316 -1440)"/>
    <polygon class="cls-12" points="2537.3 244.28 2537.3 302.18 2501.55 337.75 2501.55 222.02 2537.3 244.28 2537.3 244.28"/>
    <path class="cls-1" d="M2817.55,1826.61v.09h0v-.09ZM3975.9,1684.94v57.24H2853.12V1685c111.6-45.24,336.59-66.59,561.39-66.63s449.8,21.22,561.39,66.55Z" transform="translate(-316 -1440)"/>
    <path class="cls-13" d="M3956.19,1696.94v19.55a6,6,0,0,1-6,6H2872.83v-21.55a6,6,0,0,1,3.57-5.47c173.59-76.42,906.19-76.11,1079.79,1.49Z" transform="translate(-316 -1440)"/>
    <path class="cls-14" d="M3953.21,1695.62l3,1.32h0v19.55a6,6,0,0,1-6,6H2872.83v-21.55a6,6,0,0,1,3.57-5.47c171.89-75.67,902.79-76.11,1074.7-.76l2.11.93Zm-2.58,4.93v15.94a.42.42,0,0,1-.42.43H2878.39v-16a.43.43,0,0,1,.25-.39c171-75.27,901-75.45,1072,0Z" transform="translate(-316 -1440)"/>
    <polygon class="cls-1" points="2246.5 0 1130.5 0 1130.5 2121.21 2246.5 2121.21 2246.5 0 2246.5 0"/>
    <polygon class="cls-2" points="1154.11 23.61 2222.89 23.61 2222.89 2097.61 1154.11 2097.61 1154.11 23.61 1154.11 23.61"/>
    <path class="cls-3" d="M1470.1,1463.6H2538.9v2074H1470.1v-2074Zm4.45,4.45h1059.9V3533.16H1474.55V1468.05Z" transform="translate(-316 -1440)"/>
    <path class="cls-1" d="M2408.89,1715.86a12,12,0,0,0-6.13-10.46q-398.25-222.86-796.51,0a12,12,0,0,0-6.14,10.47V3395.6a12,12,0,0,0,12,12h784.78a12,12,0,0,0,12-12V1715.86Z" transform="translate(-316 -1440)"/>
    <path class="cls-3" d="M2408.89,1715.86a12,12,0,0,0-6.13-10.46q-398.25-222.86-796.51,0a12,12,0,0,0-6.14,10.47V3395.6a12,12,0,0,0,12,12h784.78a12,12,0,0,0,12-12V1715.86Zm-4.08,0V3395.6a7.92,7.92,0,0,1-7.92,7.92H1612.11a7.92,7.92,0,0,1-7.92-7.92V1715.87a7.91,7.91,0,0,1,4-6.9q396.27-221.16,792.53,0a7.92,7.92,0,0,1,4,6.9Z" transform="translate(-316 -1440)"/>
    <path class="cls-4" d="M2393.3,1718V3392H1615.7V1718q388.79-216,777.59,0Z" transform="translate(-316 -1440)"/>
    <path class="cls-2" d="M2370.9,1731.24V3369.61H1638.1V1731.27q366.41-197.32,732.8,0Z" transform="translate(-316 -1440)"/>
    <path class="cls-4" d="M2393.3,1718V3392H1615.7V1718q388.79-216,777.59,0Zm-22.4,13.26V3369.61H1638.1V1731.27q366.41-197.32,732.8,0Z" transform="translate(-316 -1440)"/>
    <polygon class="cls-5" points="1322.1 1929.61 1299.7 1952.01 2077.3 1952.01 2054.9 1929.61 1322.1 1929.61 1322.1 1929.61"/>
    <polygon class="cls-6" points="2077.3 1952.01 2077.3 277.61 2054.9 291.24 2054.9 1929.61 2077.3 1952.01 2077.3 1952.01"/>
    <path class="cls-7" d="M2393.3,1717.6q-388.8-215.53-777.59,0l22.39,13.67q366.41-197.68,732.8,0" transform="translate(-316 -1440)"/>
    <polygon class="cls-8" points="1299.71 277.61 1299.71 1952.01 1322.1 1929.32 1322.11 291.27 1299.71 277.61 1299.71 277.61"/>
    <path class="cls-4" d="M2322,1761v1559.7h-634.9V1761q317.45-158.18,634.9-.06Z" transform="translate(-316 -1440)"/>
    <polygon class="cls-9" points="1371.05 1880.66 1407.23 1844.48 1970.38 1844.48 2005.95 1880.66 1371.05 1880.66 1371.05 1880.66"/>
    <polygon class="cls-10" points="1970.38 1844.48 1970.38 343.28 2005.95 320.96 2005.95 1880.66 1970.38 1844.48 1970.38 1844.48"/>
    <path class="cls-11" d="M1687.05,1761q317.45-158.71,634.9-.06l-35.57,22.32c-187.86-87.78-375.72-87.31-563.58,0L1687.05,1761Z" transform="translate(-316 -1440)"/>
    <polygon class="cls-12" points="1406.8 343.28 1406.8 1845.09 1371.05 1880.66 1371.05 321.02 1406.8 343.28 1406.8 343.28"/>
    <path class="cls-1" d="M1687.05,3369.52v.09h0v-.09Zm599.33-1586.24V3285.09H1722.62V1783.36q281.88-131.31,563.76-.08Z" transform="translate(-316 -1440)"/>
    <path class="cls-13" d="M2266.67,1795.94V3259.4a6,6,0,0,1-6,6H1742.33V1799.92a6,6,0,0,1,3.57-5.47q260.38-114.63,520.77,1.49Z" transform="translate(-316 -1440)"/>
    <path class="cls-14" d="M2263.69,1794.62l3,1.32h0V3259.4a6,6,0,0,1-6,6H1742.33V1799.92a6,6,0,0,1,3.57-5.47q257.83-113.51,515.68-.76l2.11.93Zm-2.58,4.93V3259.4a.42.42,0,0,1-.42.43h-512.8V1799.92a.43.43,0,0,1,.25-.39q256.48-112.9,513,0Z" transform="translate(-316 -1440)"/>
    <polygon class="cls-1" points="1116 0 0 0 0 2121.21 1116 2121.21 1116 0 1116 0"/>
    <polygon class="cls-2" points="23.61 23.61 1092.39 23.61 1092.39 2097.61 23.61 2097.61 23.61 23.61 23.61 23.61"/>
    <path class="cls-3" d="M339.6,1463.6H1408.39v2074H339.6v-2074Zm4.45,4.45H1404V3533.16H344.05V1468.05Z" transform="translate(-316 -1440)"/>
    <path class="cls-1" d="M1278.39,1715.86a12,12,0,0,0-6.13-10.46q-398.25-222.86-796.51,0a12,12,0,0,0-6.14,10.47V3395.6a12,12,0,0,0,12,12h784.78a12,12,0,0,0,12-12V1715.86Z" transform="translate(-316 -1440)"/>
    <path class="cls-3" d="M1278.39,1715.86a12,12,0,0,0-6.13-10.46q-398.25-222.86-796.51,0a12,12,0,0,0-6.14,10.47V3395.6a12,12,0,0,0,12,12h784.78a12,12,0,0,0,12-12V1715.86Zm-4.08,0V3395.6a7.92,7.92,0,0,1-7.92,7.92H481.61a7.92,7.92,0,0,1-7.92-7.92V1715.87a7.91,7.91,0,0,1,4.05-6.9q396.27-221.16,792.53,0a7.92,7.92,0,0,1,4,6.9Z" transform="translate(-316 -1440)"/>
    <path class="cls-4" d="M1262.8,1718V3392H485.2V1718q388.78-216,777.59,0Z" transform="translate(-316 -1440)"/>
    <path class="cls-2" d="M1240.4,1731.24V3369.61H507.6V1731.27q366.41-197.32,732.8,0Z" transform="translate(-316 -1440)"/>
    <path class="cls-4" d="M1262.8,1718V3392H485.2V1718q388.78-216,777.59,0Zm-22.4,13.26V3369.61H507.6V1731.27q366.41-197.32,732.8,0Z" transform="translate(-316 -1440)"/>
    <polygon class="cls-5" points="191.6 1929.61 169.2 1952.01 946.8 1952.01 924.4 1929.61 191.6 1929.61 191.6 1929.61"/>
    <polygon class="cls-6" points="946.8 1952.01 946.8 277.61 924.4 291.24 924.4 1929.61 946.8 1952.01 946.8 1952.01"/>
    <path class="cls-7" d="M1262.8,1717.6q-388.8-215.53-777.59,0l22.39,13.67q366.41-197.68,732.8,0" transform="translate(-316 -1440)"/>
    <polygon class="cls-8" points="169.21 277.61 169.21 1952.01 191.6 1929.32 191.6 291.27 169.21 277.61 169.21 277.61"/>
    <path class="cls-4" d="M1191.45,1761v1559.7H556.55V1761q317.44-158.18,634.9-.06Z" transform="translate(-316 -1440)"/>
    <polygon class="cls-9" points="240.55 1880.66 276.73 1844.48 839.88 1844.48 875.45 1880.66 240.55 1880.66 240.55 1880.66"/>
    <polygon class="cls-10" points="839.88 1844.48 839.88 343.28 875.45 320.96 875.45 1880.66 839.88 1844.48 839.88 1844.48"/>
    <path class="cls-11" d="M556.55,1761q317.44-158.71,634.9-.06l-35.57,22.32c-187.86-87.78-375.72-87.31-563.58,0L556.55,1761Z" transform="translate(-316 -1440)"/>
    <polygon class="cls-12" points="276.3 343.28 276.3 1845.09 240.55 1880.66 240.55 321.02 276.3 343.28 276.3 343.28"/>
    <path class="cls-1" d="M556.55,3369.52v.09h0v-.09Zm599.33-1586.24V3285.09H592.12V1783.36q281.88-131.31,563.76-.08Z" transform="translate(-316 -1440)"/>
    <path class="cls-13" d="M1136.17,1795.94V3259.4a6,6,0,0,1-6,6H611.83V1799.92a6,6,0,0,1,3.57-5.47q260.39-114.63,520.77,1.49Z" transform="translate(-316 -1440)"/>
    <path class="cls-14" d="M1133.19,1794.62l3,1.32h0V3259.4a6,6,0,0,1-6,6H611.83V1799.92a6,6,0,0,1,3.57-5.47q257.83-113.51,515.68-.76l2.11.93Zm-2.58,4.93V3259.4a.42.42,0,0,1-.42.43H617.39V1799.92a.43.43,0,0,1,.25-.39q256.49-112.9,513,0Z" transform="translate(-316 -1440)"/>
  </g>
</svg>
