<svg id="Layer_1" data-name="Layer 1" xmlns="http://www.w3.org/2000/svg" viewBox="0 0 5000 2428.13">
  <defs>
    <style>
      .cls-1 {
        fill: #aabf9e;
      }

      .cls-2 {
        fill: #8a9b82;
      }

      .cls-10, .cls-11, .cls-2, .cls-3, .cls-4, .cls-5, .cls-6, .cls-7, .cls-8, .cls-9 {
        fill-rule: evenodd;
      }

      .cls-3 {
        fill: #6d7a66;
      }

      .cls-4 {
        fill: #a0b496;
      }

      .cls-5 {
        fill: #bed5b1;
      }

      .cls-6 {
        fill: #93a589;
      }

      .cls-7 {
        fill: #a3b798;
      }

      .cls-8 {
        fill: #bdd4af;
      }

      .cls-9 {
        fill: #a3b697;
      }

      .cls-10 {
        fill: #7e8e76;
      }

      .cls-11 {
        fill: #96a58f;
      }
    </style>
  </defs>
  <title>V90A_Rotund</title>
  <g>
    <g id="Usa-Dr">
      <rect class="cls-1" x="4522.11" width="477.89" height="2428.13"/>
      <path class="cls-2" d="M4549.13,1312.5H4973V3686.58H4549.13Zm5.1,5.09h413.66v2363.9H4554.23Z" transform="translate(0 -1285.47)"/>
      <path class="cls-2" d="M4936.64,3524V1545.34a5.94,5.94,0,0,0-2.38-4.83q-175.18-125.23-350.35,0a5.9,5.9,0,0,0-2.39,4.84c0,81.94,0,1816.05,0,1978.69a13.73,13.73,0,0,0,13.74,13.73h327.66a13.71,13.71,0,0,0,13.73-13.73Zm-7.06-1980.6a5.92,5.92,0,0,1,2.39,4.84V3524a9,9,0,0,1-9.06,9.06H4595.25a9,9,0,0,1-9.06-9.06V1548.29a5.89,5.89,0,0,1,2.41-4.84C4702.26,1463.23,4815.92,1462.55,4929.58,1543.44Z" transform="translate(0 -1285.47)"/>
      <path class="cls-3" d="M4918.8,1556.32c-106.48-75.52-213-78-319.43,0L4625,1572q134.07-88.9,268.14,0" transform="translate(0 -1285.47)"/>
      <path class="cls-4" d="M4599.37,1556.32v1963.6l25.64-26V1572Z" transform="translate(0 -1285.47)"/>
      <path class="cls-5" d="M4625,3494.29l-25.64,25.63H4918.8l-25.65-25.63Z" transform="translate(0 -1285.47)"/>
      <path class="cls-6" d="M4918.8,3519.92V1556.32l-25.65,15.6V3494.29Z" transform="translate(0 -1285.47)"/>
      <path class="cls-7" d="M4714.46,1604V3397.54l-40.92,40.72V1578.54Z" transform="translate(0 -1285.47)"/>
      <path class="cls-8" d="M4673.55,1578.54c.07-.07,76.47-44,164.72-.07L4797.55,1604c-.12-.06-41.64-19.26-83.09,0Z" transform="translate(0 -1285.47)"/>
      <path class="cls-9" d="M4797.55,3396.84V1604l40.72-25.55V3438.26Z" transform="translate(0 -1285.47)"/>
      <path class="cls-10" d="M4673.54,3438.26l41.42-41.42h82.59l40.72,41.42Z" transform="translate(0 -1285.47)"/>
      <path class="cls-2" d="M4736.83,1622.33a6.4,6.4,0,0,1,6.39-6.4h25.32a6.47,6.47,0,0,1,6.45,6.46V3368.13a6.85,6.85,0,0,1-6.85,6.85h-25a6.33,6.33,0,0,1-6.31-6.32Zm31.8.32V3368.13a.48.48,0,0,1-.49.48h-25v-37.36c0-253.35,0-1600,0-1708.17a.48.48,0,0,1,.29-.45A32.07,32.07,0,0,1,4768.63,1622.65Z" transform="translate(0 -1285.47)"/>
    </g>
    <g id="Sertar-Jos">
      <rect class="cls-1" x="2588.14" y="1117.22" width="1917.38" height="1310.91"/>
      <path class="cls-2" d="M2615.16,2429.72H4478.49V3686.58H2615.16Zm5.09,5.09H4473.4V3681.49H2620.25Z" transform="translate(0 -1285.47)"/>
      <path class="cls-2" d="M4329.68,2718.48a13.75,13.75,0,0,0-7-12c-303.92-170-1247.74-169.61-1551.66,0a13.75,13.75,0,0,0-7,12c0,128.42,0,639,0,805.55a13.73,13.73,0,0,0,13.74,13.73H4316a13.73,13.73,0,0,0,13.73-13.73Zm-4.68,0V3524a9,9,0,0,1-9.05,9.06H2777.71a9,9,0,0,1-9.06-9.06V2718.49a9,9,0,0,1,4.64-7.91c302.39-168.76,1244.69-169.21,1547.09,0A9,9,0,0,1,4325,2718.48Z" transform="translate(0 -1285.47)"/>
      <path class="cls-3" d="M4311.82,2720.47c-296.69-164.49-1233.29-164.33-1530,0l25.64,15.63c279.61-150.84,1199.11-150.56,1478.71,0" transform="translate(0 -1285.47)"/>
      <path class="cls-4" d="M2781.83,2720.47v799.45l25.64-26V2736.1Z" transform="translate(0 -1285.47)"/>
      <path class="cls-5" d="M2807.47,3494.29l-25.64,25.63h1530l-25.64-25.63Z" transform="translate(0 -1285.47)"/>
      <path class="cls-6" d="M4311.82,3519.92V2720.47l-25.64,15.6v758.22Z" transform="translate(0 -1285.47)"/>
      <path class="cls-7" d="M2904.41,2795.64v601.9l-40.92,40.72v-668.1Z" transform="translate(0 -1285.47)"/>
      <path class="cls-8" d="M2863.5,2770.16c242.25-121.12,1124.4-120.59,1366.66-.07l-40.71,25.55c-215-100.48-1070-99.93-1285,0Z" transform="translate(0 -1285.47)"/>
      <path class="cls-9" d="M4189.45,3396.84v-601.2l40.71-25.55v668.17Z" transform="translate(0 -1285.47)"/>
      <path class="cls-10" d="M2863.49,3438.26l41.42-41.42H4189.45l40.71,41.42Z" transform="translate(0 -1285.47)"/>
      <path class="cls-2" d="M4163.47,2808.62c1.15.5,2.28,1,3.41,1.52h0v558A6.85,6.85,0,0,1,4160,3375H2926.77s0-440,0-560.28a6.82,6.82,0,0,1,4.08-6.26c196.76-86.63,1033.41-87.14,1230.2-.89Zm-2.95,5.65v553.86a.48.48,0,0,1-.48.48H2933.13v-37.36c0-253.35,0-408.34,0-516.55a.48.48,0,0,1,.29-.45C3129.15,2728.09,3964.77,2727.88,4160.52,2814.27Z" transform="translate(0 -1285.47)"/>
    </g>
    <g id="Sertar-Mj">
      <rect class="cls-1" x="2588.14" y="558.61" width="1917.38" height="545.38"/>
      <path class="cls-2" d="M2615.16,1871.11H4478.49v491.34H2615.16Zm5.09,5.09H4473.4v481.16H2620.25Z" transform="translate(0 -1285.47)"/>
      <path class="cls-2" d="M4329.68,2046.54a13.75,13.75,0,0,0-7-12c-303.92-170.06-1247.74-169.61-1551.66,0a13.74,13.74,0,0,0-7,12c0,128.43,0,103.37,0,269.94a13.76,13.76,0,0,0,13.74,13.74H4316a13.76,13.76,0,0,0,13.73-13.74Zm-4.68,0v269.95a9,9,0,0,1-9.05,9.07H2777.71a9,9,0,0,1-9.06-9.07V2046.55a9.06,9.06,0,0,1,4.64-7.91c302.39-168.76,1244.69-169.2,1547.09,0A9.06,9.06,0,0,1,4325,2046.54Z" transform="translate(0 -1285.47)"/>
      <path class="cls-3" d="M4311.82,2048.53c-296.69-164.49-1233.29-164.33-1530,0l25.64,15.64c279.61-150.85,1199.11-150.56,1478.71,0" transform="translate(0 -1285.47)"/>
      <path class="cls-4" d="M2781.83,2048.53v263.84l25.64-26V2064.17Z" transform="translate(0 -1285.47)"/>
      <path class="cls-5" d="M2807.47,2286.73l-25.64,25.64h1530l-25.64-25.64Z" transform="translate(0 -1285.47)"/>
      <path class="cls-6" d="M4311.82,2312.37V2048.53l-25.64,15.61v222.59Z" transform="translate(0 -1285.47)"/>
      <path class="cls-7" d="M2904.41,2123.71V2190l-40.92,40.71V2098.23Z" transform="translate(0 -1285.47)"/>
      <path class="cls-8" d="M2863.5,2098.23c242.25-121.12,1124.4-120.6,1366.66-.07l-40.71,25.55c-215-100.48-1070-99.93-1285,0Z" transform="translate(0 -1285.47)"/>
      <path class="cls-9" d="M4189.45,2189.3v-65.59l40.71-25.55v132.55Z" transform="translate(0 -1285.47)"/>
      <path class="cls-10" d="M2863.49,2230.71l41.42-41.41H4189.45l40.71,41.41Z" transform="translate(0 -1285.47)"/>
      <path class="cls-2" d="M4163.47,2136.69c1.15.5,2.28,1,3.41,1.52h0v22.38a6.84,6.84,0,0,1-6.84,6.84H2926.77s0-12,0-24.66a6.84,6.84,0,0,1,4.08-6.27c196.76-86.63,1033.41-87.13,1230.2-.88Zm-2.95,5.65v18.25a.49.49,0,0,1-.48.48H2933.13s0-6.25,0-18.3a.48.48,0,0,1,.29-.45C3129.15,2056.16,3964.77,2056,4160.52,2142.34Z" transform="translate(0 -1285.47)"/>
    </g>
    <g id="Sertar-Sus">
      <rect class="cls-1" x="2588.14" width="1917.38" height="545.38"/>
      <path class="cls-2" d="M2615.16,1312.5H4478.49v491.35H2615.16Zm5.09,5.09H4473.4v481.16H2620.25Z" transform="translate(0 -1285.47)"/>
      <path class="cls-2" d="M4329.68,1487.93a13.75,13.75,0,0,0-7-12c-303.92-170-1247.74-169.61-1551.66,0a13.75,13.75,0,0,0-7,12c0,128.42,0,103.36,0,269.94a13.76,13.76,0,0,0,13.74,13.73H4316a13.76,13.76,0,0,0,13.73-13.73Zm-4.68,0v270A9,9,0,0,1,4316,1767H2777.71a9,9,0,0,1-9.06-9.06V1488a9,9,0,0,1,4.64-7.91c302.39-168.76,1244.69-169.21,1547.09,0A9,9,0,0,1,4325,1487.93Z" transform="translate(0 -1285.47)"/>
      <path class="cls-3" d="M4311.82,1489.93c-296.69-164.49-1233.29-164.33-1530,0l25.64,15.63c279.61-150.84,1199.11-150.56,1478.71,0" transform="translate(0 -1285.47)"/>
      <path class="cls-4" d="M2781.83,1489.93v263.84l25.64-26V1505.56Z" transform="translate(0 -1285.47)"/>
      <path class="cls-5" d="M2807.47,1728.12l-25.64,25.65h1530l-25.64-25.65Z" transform="translate(0 -1285.47)"/>
      <path class="cls-6" d="M4311.82,1753.77V1489.93l-25.64,15.6v222.59Z" transform="translate(0 -1285.47)"/>
      <path class="cls-7" d="M2904.41,1565.1v66.29l-40.92,40.71V1539.62Z" transform="translate(0 -1285.47)"/>
      <path class="cls-8" d="M2863.5,1539.62c242.25-121.12,1124.4-120.6,1366.66-.07l-40.71,25.55c-215-100.48-1070-99.93-1285,0Z" transform="translate(0 -1285.47)"/>
      <path class="cls-9" d="M4189.45,1630.69V1565.1l40.71-25.55V1672.1Z" transform="translate(0 -1285.47)"/>
      <path class="cls-10" d="M2863.49,1672.1l41.42-41.41H4189.45l40.71,41.41Z" transform="translate(0 -1285.47)"/>
      <path class="cls-2" d="M4163.47,1578.08c1.15.5,2.28,1,3.41,1.52h0V1602a6.85,6.85,0,0,1-6.84,6.85H2926.77s0-12,0-24.67a6.82,6.82,0,0,1,4.08-6.26c196.76-86.63,1033.41-87.14,1230.2-.89Zm-2.95,5.65V1602a.49.49,0,0,1-.48.48H2933.13s0-6.25,0-18.3a.48.48,0,0,1,.29-.45C3129.15,1497.55,3964.77,1497.34,4160.52,1583.73Z" transform="translate(0 -1285.47)"/>
    </g>
    <g id="Usa-Mj">
      <rect class="cls-1" x="1294.07" width="1277.47" height="2428.13"/>
      <path class="cls-2" d="M1321.09,1312.5H2544.52V3686.58H1321.09Zm5.09,5.09H2539.43v2363.9H1326.18Z" transform="translate(0 -1285.47)"/>
      <path class="cls-2" d="M2395.71,1601.26a13.75,13.75,0,0,0-7-12q-455.86-255.07-911.76,0a13.7,13.7,0,0,0-7,12c0,128.42,0,1756.19,0,1922.77a13.73,13.73,0,0,0,13.74,13.73H2382a13.71,13.71,0,0,0,13.74-13.73Zm-4.67,0V3524a9.06,9.06,0,0,1-9.07,9.06H1483.64a9,9,0,0,1-9.06-9.06V1601.27a9.05,9.05,0,0,1,4.64-7.91q453.58-253.14,907.19,0A9.08,9.08,0,0,1,2391,1601.26Z" transform="translate(0 -1285.47)"/>
      <path class="cls-3" d="M2377.86,1603.25q-445.05-246.74-890.1,0l25.64,15.64q419.4-226.28,838.82,0" transform="translate(0 -1285.47)"/>
      <path class="cls-4" d="M1487.76,1603.25V3519.92l25.64-26v-1875Z" transform="translate(0 -1285.47)"/>
      <path class="cls-5" d="M1513.4,3494.29l-25.64,25.63h890.1l-25.64-25.63Z" transform="translate(0 -1285.47)"/>
      <path class="cls-6" d="M2377.86,3519.92V1603.25l-25.64,15.6V3494.29Z" transform="translate(0 -1285.47)"/>
      <path class="cls-7" d="M1610.34,1678.42V3397.54l-40.92,40.72V1652.94Z" transform="translate(0 -1285.47)"/>
      <path class="cls-8" d="M1569.43,1652.94q363.38-181.68,726.76-.07l-40.72,25.55c-215-100.48-430.08-99.93-645.13,0Z" transform="translate(0 -1285.47)"/>
      <path class="cls-9" d="M2255.47,3396.84V1678.42l40.72-25.55V3438.26Z" transform="translate(0 -1285.47)"/>
      <path class="cls-10" d="M1569.42,3438.26l41.42-41.42h644.63l40.72,41.42Z" transform="translate(0 -1285.47)"/>
      <path class="cls-2" d="M2229.5,1691.4c1.14.51,2.28,1,3.41,1.53h0v1675.2a6.85,6.85,0,0,1-6.85,6.85H1632.7V1697.48a6.85,6.85,0,0,1,4.09-6.26q295.14-129.95,590.29-.88Zm-2.95,5.66V3368.13a.48.48,0,0,1-.49.48h-587v-37.36c0-253.35,0-1525.56,0-1633.77a.48.48,0,0,1,.29-.44Q1932.94,1567.79,2226.55,1697.06Z" transform="translate(0 -1285.47)"/>
    </g>
    <g id="Usa-St">
      <rect class="cls-1" width="1277.47" height="2428.13"/>
      <path class="cls-2" d="M27,1312.5H1250.45V3686.58H27Zm5.09,5.09H1245.36v2363.9H32.11Z" transform="translate(0 -1285.47)"/>
      <path class="cls-2" d="M1101.64,1601.26a13.75,13.75,0,0,0-7-12q-455.86-255.07-911.76,0a13.7,13.7,0,0,0-7,12c0,128.42,0,1756.19,0,1922.77a13.73,13.73,0,0,0,13.74,13.73H1087.9a13.71,13.71,0,0,0,13.74-13.73Zm-4.67,0V3524a9.06,9.06,0,0,1-9.07,9.06H189.57a9,9,0,0,1-9.06-9.06V1601.27a9.05,9.05,0,0,1,4.64-7.91q453.59-253.14,907.19,0A9.08,9.08,0,0,1,1097,1601.26Z" transform="translate(0 -1285.47)"/>
      <path class="cls-3" d="M1083.79,1603.25q-445-246.74-890.1,0l25.64,15.64q419.4-226.28,838.82,0" transform="translate(0 -1285.47)"/>
      <path class="cls-4" d="M193.69,1603.25V3519.92l25.64-26v-1875Z" transform="translate(0 -1285.47)"/>
      <path class="cls-5" d="M219.33,3494.29l-25.64,25.63h890.1l-25.64-25.63Z" transform="translate(0 -1285.47)"/>
      <path class="cls-6" d="M1083.79,3519.92V1603.25l-25.64,15.6V3494.29Z" transform="translate(0 -1285.47)"/>
      <path class="cls-7" d="M316.27,1678.42V3397.54l-40.92,40.72V1652.94Z" transform="translate(0 -1285.47)"/>
      <path class="cls-8" d="M275.35,1652.94q363.39-181.68,726.77-.07l-40.72,25.55c-215-100.48-430.08-99.93-645.13,0Z" transform="translate(0 -1285.47)"/>
      <path class="cls-9" d="M961.4,3396.84V1678.42l40.72-25.55V3438.26Z" transform="translate(0 -1285.47)"/>
      <path class="cls-10" d="M275.35,3438.26l41.42-41.42H961.4l40.72,41.42Z" transform="translate(0 -1285.47)"/>
      <path class="cls-11" d="M935.43,1691.4c1.14.51,2.28,1,3.41,1.53h0v1675.2A6.85,6.85,0,0,1,932,3375H338.63V1697.48a6.83,6.83,0,0,1,4.09-6.26q295.14-129.95,590.29-.88Zm-3,5.66V3368.13a.47.47,0,0,1-.48.48H345v-37.36c0-253.35,0-1525.56,0-1633.77a.48.48,0,0,1,.29-.44Q638.87,1567.79,932.47,1697.06Z" transform="translate(0 -1285.47)"/>
    </g>
  </g>
</svg>
